ISO-10303-21;
HEADER;
/* Generated by software containing ST-Developer
 * from STEP Tools, Inc. (www.steptools.com) 
 */

FILE_DESCRIPTION(
/* description */ (''),
/* implementation_level */ '2;1');

FILE_NAME(
/* name */ 'XacPAD v2 case BOTTOM.step',
/* time_stamp */ '2026-08-18T18:41:20+02:00',
/* author */ (''),
/* organization */ (''),
/* preprocessor_version */ 'ST-DEVELOPER v20.1',
/* originating_system */ 'Autodesk Translation Framework v15.8.0.0',
/* authorisation */ '');

FILE_SCHEMA (('AUTOMOTIVE_DESIGN { 1 0 10303 214 3 1 1 }'));
ENDSEC;

DATA;
#10=MECHANICAL_DESIGN_GEOMETRIC_PRESENTATION_REPRESENTATION('',(#13),#629);
#11=SHAPE_REPRESENTATION_RELATIONSHIP('SRR','None',#636,#12);
#12=ADVANCED_BREP_SHAPE_REPRESENTATION('',(#14),#628);
#13=STYLED_ITEM('',(#645),#14);
#14=MANIFOLD_SOLID_BREP('Cuerpo1',#379);
#15=FACE_BOUND('',#54,.T.);
#16=CIRCLE('',#399,1.);
#17=CIRCLE('',#400,1.);
#18=CIRCLE('',#402,1.);
#19=CIRCLE('',#403,1.);
#20=CIRCLE('',#404,1.);
#21=CIRCLE('',#406,1.);
#22=CIRCLE('',#409,1.);
#23=CIRCLE('',#412,1.);
#24=CYLINDRICAL_SURFACE('',#398,1.);
#25=CYLINDRICAL_SURFACE('',#405,1.);
#26=CYLINDRICAL_SURFACE('',#408,1.);
#27=CYLINDRICAL_SURFACE('',#411,1.);
#28=FACE_OUTER_BOUND('',#47,.T.);
#29=FACE_OUTER_BOUND('',#48,.T.);
#30=FACE_OUTER_BOUND('',#49,.T.);
#31=FACE_OUTER_BOUND('',#50,.T.);
#32=FACE_OUTER_BOUND('',#51,.T.);
#33=FACE_OUTER_BOUND('',#52,.T.);
#34=FACE_OUTER_BOUND('',#53,.T.);
#35=FACE_OUTER_BOUND('',#55,.T.);
#36=FACE_OUTER_BOUND('',#56,.T.);
#37=FACE_OUTER_BOUND('',#57,.T.);
#38=FACE_OUTER_BOUND('',#58,.T.);
#39=FACE_OUTER_BOUND('',#59,.T.);
#40=FACE_OUTER_BOUND('',#60,.T.);
#41=FACE_OUTER_BOUND('',#61,.T.);
#42=FACE_OUTER_BOUND('',#62,.T.);
#43=FACE_OUTER_BOUND('',#63,.T.);
#44=FACE_OUTER_BOUND('',#64,.T.);
#45=FACE_OUTER_BOUND('',#65,.T.);
#46=FACE_OUTER_BOUND('',#66,.T.);
#47=EDGE_LOOP('',(#241,#242,#243,#244));
#48=EDGE_LOOP('',(#245,#246,#247,#248,#249));
#49=EDGE_LOOP('',(#250,#251,#252,#253));
#50=EDGE_LOOP('',(#254,#255,#256,#257,#258));
#51=EDGE_LOOP('',(#259,#260,#261,#262,#263,#264,#265,#266));
#52=EDGE_LOOP('',(#267,#268,#269,#270));
#53=EDGE_LOOP('',(#271,#272,#273,#274,#275,#276,#277,#278));
#54=EDGE_LOOP('',(#279,#280,#281,#282));
#55=EDGE_LOOP('',(#283,#284,#285,#286));
#56=EDGE_LOOP('',(#287,#288,#289,#290));
#57=EDGE_LOOP('',(#291,#292,#293,#294));
#58=EDGE_LOOP('',(#295,#296,#297,#298));
#59=EDGE_LOOP('',(#299,#300,#301,#302));
#60=EDGE_LOOP('',(#303,#304,#305,#306));
#61=EDGE_LOOP('',(#307,#308,#309,#310,#311,#312,#313,#314));
#62=EDGE_LOOP('',(#315,#316,#317,#318));
#63=EDGE_LOOP('',(#319,#320,#321,#322));
#64=EDGE_LOOP('',(#323,#324,#325,#326));
#65=EDGE_LOOP('',(#327,#328,#329,#330,#331,#332));
#66=EDGE_LOOP('',(#333,#334,#335,#336,#337,#338,#339,#340,#341,#342,#343,
#344));
#67=LINE('',#524,#111);
#68=LINE('',#526,#112);
#69=LINE('',#528,#113);
#70=LINE('',#529,#114);
#71=LINE('',#533,#115);
#72=LINE('',#535,#116);
#73=LINE('',#536,#117);
#74=LINE('',#537,#118);
#75=LINE('',#540,#119);
#76=LINE('',#542,#120);
#77=LINE('',#543,#121);
#78=LINE('',#546,#122);
#79=LINE('',#547,#123);
#80=LINE('',#548,#124);
#81=LINE('',#551,#125);
#82=LINE('',#553,#126);
#83=LINE('',#555,#127);
#84=LINE('',#557,#128);
#85=LINE('',#558,#129);
#86=LINE('',#564,#130);
#87=LINE('',#567,#131);
#88=LINE('',#571,#132);
#89=LINE('',#575,#133);
#90=LINE('',#579,#134);
#91=LINE('',#581,#135);
#92=LINE('',#583,#136);
#93=LINE('',#584,#137);
#94=LINE('',#587,#138);
#95=LINE('',#591,#139);
#96=LINE('',#592,#140);
#97=LINE('',#595,#141);
#98=LINE('',#599,#142);
#99=LINE('',#600,#143);
#100=LINE('',#603,#144);
#101=LINE('',#606,#145);
#102=LINE('',#609,#146);
#103=LINE('',#610,#147);
#104=LINE('',#612,#148);
#105=LINE('',#613,#149);
#106=LINE('',#616,#150);
#107=LINE('',#617,#151);
#108=LINE('',#620,#152);
#109=LINE('',#621,#153);
#110=LINE('',#623,#154);
#111=VECTOR('',#424,10.);
#112=VECTOR('',#425,10.);
#113=VECTOR('',#426,10.);
#114=VECTOR('',#427,10.);
#115=VECTOR('',#430,10.);
#116=VECTOR('',#431,10.);
#117=VECTOR('',#432,10.);
#118=VECTOR('',#433,10.);
#119=VECTOR('',#436,10.);
#120=VECTOR('',#437,10.);
#121=VECTOR('',#438,10.);
#122=VECTOR('',#441,10.);
#123=VECTOR('',#442,10.);
#124=VECTOR('',#443,10.);
#125=VECTOR('',#446,10.);
#126=VECTOR('',#447,10.);
#127=VECTOR('',#448,10.);
#128=VECTOR('',#449,10.);
#129=VECTOR('',#450,10.);
#130=VECTOR('',#457,10.);
#131=VECTOR('',#460,10.);
#132=VECTOR('',#463,10.);
#133=VECTOR('',#466,10.);
#134=VECTOR('',#469,10.);
#135=VECTOR('',#470,10.);
#136=VECTOR('',#471,10.);
#137=VECTOR('',#472,10.);
#138=VECTOR('',#475,10.);
#139=VECTOR('',#480,10.);
#140=VECTOR('',#481,10.);
#141=VECTOR('',#484,10.);
#142=VECTOR('',#489,10.);
#143=VECTOR('',#490,10.);
#144=VECTOR('',#493,10.);
#145=VECTOR('',#498,10.);
#146=VECTOR('',#501,10.);
#147=VECTOR('',#502,10.);
#148=VECTOR('',#503,10.);
#149=VECTOR('',#504,10.);
#150=VECTOR('',#507,10.);
#151=VECTOR('',#508,10.);
#152=VECTOR('',#511,10.);
#153=VECTOR('',#512,10.);
#154=VECTOR('',#515,10.);
#155=VERTEX_POINT('',#522);
#156=VERTEX_POINT('',#523);
#157=VERTEX_POINT('',#525);
#158=VERTEX_POINT('',#527);
#159=VERTEX_POINT('',#531);
#160=VERTEX_POINT('',#532);
#161=VERTEX_POINT('',#534);
#162=VERTEX_POINT('',#539);
#163=VERTEX_POINT('',#541);
#164=VERTEX_POINT('',#545);
#165=VERTEX_POINT('',#550);
#166=VERTEX_POINT('',#552);
#167=VERTEX_POINT('',#554);
#168=VERTEX_POINT('',#556);
#169=VERTEX_POINT('',#560);
#170=VERTEX_POINT('',#562);
#171=VERTEX_POINT('',#566);
#172=VERTEX_POINT('',#568);
#173=VERTEX_POINT('',#570);
#174=VERTEX_POINT('',#572);
#175=VERTEX_POINT('',#574);
#176=VERTEX_POINT('',#577);
#177=VERTEX_POINT('',#578);
#178=VERTEX_POINT('',#580);
#179=VERTEX_POINT('',#582);
#180=VERTEX_POINT('',#586);
#181=VERTEX_POINT('',#590);
#182=VERTEX_POINT('',#594);
#183=VERTEX_POINT('',#598);
#184=VERTEX_POINT('',#602);
#185=VERTEX_POINT('',#608);
#186=VERTEX_POINT('',#611);
#187=VERTEX_POINT('',#615);
#188=VERTEX_POINT('',#619);
#189=EDGE_CURVE('',#155,#156,#67,.T.);
#190=EDGE_CURVE('',#157,#155,#68,.T.);
#191=EDGE_CURVE('',#158,#157,#69,.T.);
#192=EDGE_CURVE('',#156,#158,#70,.T.);
#193=EDGE_CURVE('',#159,#160,#71,.T.);
#194=EDGE_CURVE('',#159,#161,#72,.T.);
#195=EDGE_CURVE('',#156,#161,#73,.T.);
#196=EDGE_CURVE('',#160,#158,#74,.T.);
#197=EDGE_CURVE('',#162,#159,#75,.T.);
#198=EDGE_CURVE('',#162,#163,#76,.T.);
#199=EDGE_CURVE('',#161,#163,#77,.T.);
#200=EDGE_CURVE('',#164,#162,#78,.T.);
#201=EDGE_CURVE('',#157,#164,#79,.T.);
#202=EDGE_CURVE('',#163,#155,#80,.T.);
#203=EDGE_CURVE('',#165,#160,#81,.T.);
#204=EDGE_CURVE('',#166,#165,#82,.T.);
#205=EDGE_CURVE('',#167,#166,#83,.T.);
#206=EDGE_CURVE('',#168,#167,#84,.T.);
#207=EDGE_CURVE('',#164,#168,#85,.T.);
#208=EDGE_CURVE('',#169,#166,#16,.T.);
#209=EDGE_CURVE('',#165,#170,#17,.T.);
#210=EDGE_CURVE('',#170,#169,#86,.T.);
#211=EDGE_CURVE('',#169,#171,#87,.T.);
#212=EDGE_CURVE('',#172,#171,#18,.T.);
#213=EDGE_CURVE('',#172,#173,#88,.T.);
#214=EDGE_CURVE('',#174,#173,#19,.T.);
#215=EDGE_CURVE('',#174,#175,#89,.T.);
#216=EDGE_CURVE('',#167,#175,#20,.T.);
#217=EDGE_CURVE('',#176,#177,#90,.T.);
#218=EDGE_CURVE('',#177,#178,#91,.T.);
#219=EDGE_CURVE('',#178,#179,#92,.T.);
#220=EDGE_CURVE('',#179,#176,#93,.T.);
#221=EDGE_CURVE('',#175,#180,#94,.T.);
#222=EDGE_CURVE('',#180,#168,#21,.T.);
#223=EDGE_CURVE('',#181,#174,#95,.T.);
#224=EDGE_CURVE('',#180,#181,#96,.T.);
#225=EDGE_CURVE('',#173,#182,#97,.T.);
#226=EDGE_CURVE('',#182,#181,#22,.T.);
#227=EDGE_CURVE('',#183,#172,#98,.T.);
#228=EDGE_CURVE('',#182,#183,#99,.T.);
#229=EDGE_CURVE('',#171,#184,#100,.T.);
#230=EDGE_CURVE('',#184,#183,#23,.T.);
#231=EDGE_CURVE('',#184,#170,#101,.T.);
#232=EDGE_CURVE('',#185,#155,#102,.T.);
#233=EDGE_CURVE('',#185,#179,#103,.T.);
#234=EDGE_CURVE('',#186,#178,#104,.T.);
#235=EDGE_CURVE('',#156,#186,#105,.T.);
#236=EDGE_CURVE('',#187,#185,#106,.T.);
#237=EDGE_CURVE('',#187,#176,#107,.T.);
#238=EDGE_CURVE('',#186,#188,#108,.T.);
#239=EDGE_CURVE('',#188,#177,#109,.T.);
#240=EDGE_CURVE('',#188,#187,#110,.T.);
#241=ORIENTED_EDGE('',*,*,#189,.F.);
#242=ORIENTED_EDGE('',*,*,#190,.F.);
#243=ORIENTED_EDGE('',*,*,#191,.F.);
#244=ORIENTED_EDGE('',*,*,#192,.F.);
#245=ORIENTED_EDGE('',*,*,#193,.F.);
#246=ORIENTED_EDGE('',*,*,#194,.T.);
#247=ORIENTED_EDGE('',*,*,#195,.F.);
#248=ORIENTED_EDGE('',*,*,#192,.T.);
#249=ORIENTED_EDGE('',*,*,#196,.F.);
#250=ORIENTED_EDGE('',*,*,#197,.F.);
#251=ORIENTED_EDGE('',*,*,#198,.T.);
#252=ORIENTED_EDGE('',*,*,#199,.F.);
#253=ORIENTED_EDGE('',*,*,#194,.F.);
#254=ORIENTED_EDGE('',*,*,#200,.F.);
#255=ORIENTED_EDGE('',*,*,#201,.F.);
#256=ORIENTED_EDGE('',*,*,#190,.T.);
#257=ORIENTED_EDGE('',*,*,#202,.F.);
#258=ORIENTED_EDGE('',*,*,#198,.F.);
#259=ORIENTED_EDGE('',*,*,#200,.T.);
#260=ORIENTED_EDGE('',*,*,#197,.T.);
#261=ORIENTED_EDGE('',*,*,#193,.T.);
#262=ORIENTED_EDGE('',*,*,#203,.F.);
#263=ORIENTED_EDGE('',*,*,#204,.F.);
#264=ORIENTED_EDGE('',*,*,#205,.F.);
#265=ORIENTED_EDGE('',*,*,#206,.F.);
#266=ORIENTED_EDGE('',*,*,#207,.F.);
#267=ORIENTED_EDGE('',*,*,#208,.T.);
#268=ORIENTED_EDGE('',*,*,#204,.T.);
#269=ORIENTED_EDGE('',*,*,#209,.T.);
#270=ORIENTED_EDGE('',*,*,#210,.T.);
#271=ORIENTED_EDGE('',*,*,#208,.F.);
#272=ORIENTED_EDGE('',*,*,#211,.T.);
#273=ORIENTED_EDGE('',*,*,#212,.F.);
#274=ORIENTED_EDGE('',*,*,#213,.T.);
#275=ORIENTED_EDGE('',*,*,#214,.F.);
#276=ORIENTED_EDGE('',*,*,#215,.T.);
#277=ORIENTED_EDGE('',*,*,#216,.F.);
#278=ORIENTED_EDGE('',*,*,#205,.T.);
#279=ORIENTED_EDGE('',*,*,#217,.T.);
#280=ORIENTED_EDGE('',*,*,#218,.T.);
#281=ORIENTED_EDGE('',*,*,#219,.T.);
#282=ORIENTED_EDGE('',*,*,#220,.T.);
#283=ORIENTED_EDGE('',*,*,#216,.T.);
#284=ORIENTED_EDGE('',*,*,#221,.T.);
#285=ORIENTED_EDGE('',*,*,#222,.T.);
#286=ORIENTED_EDGE('',*,*,#206,.T.);
#287=ORIENTED_EDGE('',*,*,#221,.F.);
#288=ORIENTED_EDGE('',*,*,#215,.F.);
#289=ORIENTED_EDGE('',*,*,#223,.F.);
#290=ORIENTED_EDGE('',*,*,#224,.F.);
#291=ORIENTED_EDGE('',*,*,#214,.T.);
#292=ORIENTED_EDGE('',*,*,#225,.T.);
#293=ORIENTED_EDGE('',*,*,#226,.T.);
#294=ORIENTED_EDGE('',*,*,#223,.T.);
#295=ORIENTED_EDGE('',*,*,#225,.F.);
#296=ORIENTED_EDGE('',*,*,#213,.F.);
#297=ORIENTED_EDGE('',*,*,#227,.F.);
#298=ORIENTED_EDGE('',*,*,#228,.F.);
#299=ORIENTED_EDGE('',*,*,#212,.T.);
#300=ORIENTED_EDGE('',*,*,#229,.T.);
#301=ORIENTED_EDGE('',*,*,#230,.T.);
#302=ORIENTED_EDGE('',*,*,#227,.T.);
#303=ORIENTED_EDGE('',*,*,#210,.F.);
#304=ORIENTED_EDGE('',*,*,#231,.F.);
#305=ORIENTED_EDGE('',*,*,#229,.F.);
#306=ORIENTED_EDGE('',*,*,#211,.F.);
#307=ORIENTED_EDGE('',*,*,#202,.T.);
#308=ORIENTED_EDGE('',*,*,#232,.F.);
#309=ORIENTED_EDGE('',*,*,#233,.T.);
#310=ORIENTED_EDGE('',*,*,#219,.F.);
#311=ORIENTED_EDGE('',*,*,#234,.F.);
#312=ORIENTED_EDGE('',*,*,#235,.F.);
#313=ORIENTED_EDGE('',*,*,#195,.T.);
#314=ORIENTED_EDGE('',*,*,#199,.T.);
#315=ORIENTED_EDGE('',*,*,#236,.F.);
#316=ORIENTED_EDGE('',*,*,#237,.T.);
#317=ORIENTED_EDGE('',*,*,#220,.F.);
#318=ORIENTED_EDGE('',*,*,#233,.F.);
#319=ORIENTED_EDGE('',*,*,#238,.F.);
#320=ORIENTED_EDGE('',*,*,#234,.T.);
#321=ORIENTED_EDGE('',*,*,#218,.F.);
#322=ORIENTED_EDGE('',*,*,#239,.F.);
#323=ORIENTED_EDGE('',*,*,#240,.F.);
#324=ORIENTED_EDGE('',*,*,#239,.T.);
#325=ORIENTED_EDGE('',*,*,#217,.F.);
#326=ORIENTED_EDGE('',*,*,#237,.F.);
#327=ORIENTED_EDGE('',*,*,#236,.T.);
#328=ORIENTED_EDGE('',*,*,#232,.T.);
#329=ORIENTED_EDGE('',*,*,#189,.T.);
#330=ORIENTED_EDGE('',*,*,#235,.T.);
#331=ORIENTED_EDGE('',*,*,#238,.T.);
#332=ORIENTED_EDGE('',*,*,#240,.T.);
#333=ORIENTED_EDGE('',*,*,#201,.T.);
#334=ORIENTED_EDGE('',*,*,#207,.T.);
#335=ORIENTED_EDGE('',*,*,#222,.F.);
#336=ORIENTED_EDGE('',*,*,#224,.T.);
#337=ORIENTED_EDGE('',*,*,#226,.F.);
#338=ORIENTED_EDGE('',*,*,#228,.T.);
#339=ORIENTED_EDGE('',*,*,#230,.F.);
#340=ORIENTED_EDGE('',*,*,#231,.T.);
#341=ORIENTED_EDGE('',*,*,#209,.F.);
#342=ORIENTED_EDGE('',*,*,#203,.T.);
#343=ORIENTED_EDGE('',*,*,#196,.T.);
#344=ORIENTED_EDGE('',*,*,#191,.T.);
#345=PLANE('',#393);
#346=PLANE('',#394);
#347=PLANE('',#395);
#348=PLANE('',#396);
#349=PLANE('',#397);
#350=PLANE('',#401);
#351=PLANE('',#407);
#352=PLANE('',#410);
#353=PLANE('',#413);
#354=PLANE('',#414);
#355=PLANE('',#415);
#356=PLANE('',#416);
#357=PLANE('',#417);
#358=PLANE('',#418);
#359=PLANE('',#419);
#360=ADVANCED_FACE('',(#28),#345,.F.);
#361=ADVANCED_FACE('',(#29),#346,.F.);
#362=ADVANCED_FACE('',(#30),#347,.F.);
#363=ADVANCED_FACE('',(#31),#348,.F.);
#364=ADVANCED_FACE('',(#32),#349,.T.);
#365=ADVANCED_FACE('',(#33),#24,.T.);
#366=ADVANCED_FACE('',(#34,#15),#350,.T.);
#367=ADVANCED_FACE('',(#35),#25,.T.);
#368=ADVANCED_FACE('',(#36),#351,.T.);
#369=ADVANCED_FACE('',(#37),#26,.T.);
#370=ADVANCED_FACE('',(#38),#352,.T.);
#371=ADVANCED_FACE('',(#39),#27,.T.);
#372=ADVANCED_FACE('',(#40),#353,.T.);
#373=ADVANCED_FACE('',(#41),#354,.T.);
#374=ADVANCED_FACE('',(#42),#355,.T.);
#375=ADVANCED_FACE('',(#43),#356,.T.);
#376=ADVANCED_FACE('',(#44),#357,.T.);
#377=ADVANCED_FACE('',(#45),#358,.T.);
#378=ADVANCED_FACE('',(#46),#359,.F.);
#379=CLOSED_SHELL('',(#360,#361,#362,#363,#364,#365,#366,#367,#368,#369,
#370,#371,#372,#373,#374,#375,#376,#377,#378));
#380=DERIVED_UNIT_ELEMENT(#382,1.);
#381=DERIVED_UNIT_ELEMENT(#631,-3.);
#382=(
MASS_UNIT()
NAMED_UNIT(*)
SI_UNIT(.KILO.,.GRAM.)
);
#383=DERIVED_UNIT((#380,#381));
#384=MEASURE_REPRESENTATION_ITEM('density measure',
POSITIVE_RATIO_MEASURE(7850.),#383);
#385=PROPERTY_DEFINITION_REPRESENTATION(#390,#387);
#386=PROPERTY_DEFINITION_REPRESENTATION(#391,#388);
#387=REPRESENTATION('material name',(#389),#628);
#388=REPRESENTATION('density',(#384),#628);
#389=DESCRIPTIVE_REPRESENTATION_ITEM('Acero','Acero');
#390=PROPERTY_DEFINITION('material property','material name',#638);
#391=PROPERTY_DEFINITION('material property','density of part',#638);
#392=AXIS2_PLACEMENT_3D('',#520,#420,#421);
#393=AXIS2_PLACEMENT_3D('',#521,#422,#423);
#394=AXIS2_PLACEMENT_3D('',#530,#428,#429);
#395=AXIS2_PLACEMENT_3D('',#538,#434,#435);
#396=AXIS2_PLACEMENT_3D('',#544,#439,#440);
#397=AXIS2_PLACEMENT_3D('',#549,#444,#445);
#398=AXIS2_PLACEMENT_3D('',#559,#451,#452);
#399=AXIS2_PLACEMENT_3D('',#561,#453,#454);
#400=AXIS2_PLACEMENT_3D('',#563,#455,#456);
#401=AXIS2_PLACEMENT_3D('',#565,#458,#459);
#402=AXIS2_PLACEMENT_3D('',#569,#461,#462);
#403=AXIS2_PLACEMENT_3D('',#573,#464,#465);
#404=AXIS2_PLACEMENT_3D('',#576,#467,#468);
#405=AXIS2_PLACEMENT_3D('',#585,#473,#474);
#406=AXIS2_PLACEMENT_3D('',#588,#476,#477);
#407=AXIS2_PLACEMENT_3D('',#589,#478,#479);
#408=AXIS2_PLACEMENT_3D('',#593,#482,#483);
#409=AXIS2_PLACEMENT_3D('',#596,#485,#486);
#410=AXIS2_PLACEMENT_3D('',#597,#487,#488);
#411=AXIS2_PLACEMENT_3D('',#601,#491,#492);
#412=AXIS2_PLACEMENT_3D('',#604,#494,#495);
#413=AXIS2_PLACEMENT_3D('',#605,#496,#497);
#414=AXIS2_PLACEMENT_3D('',#607,#499,#500);
#415=AXIS2_PLACEMENT_3D('',#614,#505,#506);
#416=AXIS2_PLACEMENT_3D('',#618,#509,#510);
#417=AXIS2_PLACEMENT_3D('',#622,#513,#514);
#418=AXIS2_PLACEMENT_3D('',#624,#516,#517);
#419=AXIS2_PLACEMENT_3D('',#625,#518,#519);
#420=DIRECTION('axis',(0.,0.,1.));
#421=DIRECTION('refdir',(1.,0.,0.));
#422=DIRECTION('center_axis',(1.,0.,0.));
#423=DIRECTION('ref_axis',(0.,0.,-1.));
#424=DIRECTION('',(0.,-1.,0.));
#425=DIRECTION('',(0.,0.,1.));
#426=DIRECTION('',(0.,1.,0.));
#427=DIRECTION('',(0.,0.,-1.));
#428=DIRECTION('center_axis',(0.,-1.,0.));
#429=DIRECTION('ref_axis',(0.,0.,-1.));
#430=DIRECTION('',(0.,0.,-1.));
#431=DIRECTION('',(1.,0.,0.));
#432=DIRECTION('',(0.,0.,1.));
#433=DIRECTION('',(1.,0.,0.));
#434=DIRECTION('center_axis',(0.,0.,1.));
#435=DIRECTION('ref_axis',(0.,-1.,0.));
#436=DIRECTION('',(0.,-1.,0.));
#437=DIRECTION('',(1.,0.,0.));
#438=DIRECTION('',(0.,1.,0.));
#439=DIRECTION('center_axis',(0.,1.,0.));
#440=DIRECTION('ref_axis',(0.,0.,1.));
#441=DIRECTION('',(0.,0.,1.));
#442=DIRECTION('',(-1.,0.,0.));
#443=DIRECTION('',(0.,0.,-1.));
#444=DIRECTION('center_axis',(-1.,0.,0.));
#445=DIRECTION('ref_axis',(0.,-1.,0.));
#446=DIRECTION('',(0.,1.,0.));
#447=DIRECTION('',(0.,0.,-1.));
#448=DIRECTION('',(0.,-1.,0.));
#449=DIRECTION('',(0.,0.,1.));
#450=DIRECTION('',(0.,1.,0.));
#451=DIRECTION('center_axis',(0.,0.,1.));
#452=DIRECTION('ref_axis',(-0.707106781186554,-0.707106781186541,0.));
#453=DIRECTION('center_axis',(0.,0.,-1.));
#454=DIRECTION('ref_axis',(-0.707106781186554,-0.707106781186541,0.));
#455=DIRECTION('center_axis',(0.,0.,1.));
#456=DIRECTION('ref_axis',(-0.707106781186554,-0.707106781186541,0.));
#457=DIRECTION('',(0.,0.,1.));
#458=DIRECTION('center_axis',(0.,0.,1.));
#459=DIRECTION('ref_axis',(1.,0.,0.));
#460=DIRECTION('',(1.,0.,0.));
#461=DIRECTION('center_axis',(0.,0.,-1.));
#462=DIRECTION('ref_axis',(0.707106781186548,-0.707106781186548,0.));
#463=DIRECTION('',(0.,1.,0.));
#464=DIRECTION('center_axis',(0.,0.,-1.));
#465=DIRECTION('ref_axis',(0.707106781186548,0.707106781186548,0.));
#466=DIRECTION('',(-1.,0.,0.));
#467=DIRECTION('center_axis',(0.,0.,-1.));
#468=DIRECTION('ref_axis',(-0.70710678118654,0.707106781186555,0.));
#469=DIRECTION('',(0.,-1.,0.));
#470=DIRECTION('',(-1.,0.,0.));
#471=DIRECTION('',(0.,1.,0.));
#472=DIRECTION('',(1.,0.,0.));
#473=DIRECTION('center_axis',(0.,0.,1.));
#474=DIRECTION('ref_axis',(-0.70710678118654,0.707106781186555,0.));
#475=DIRECTION('',(0.,0.,-1.));
#476=DIRECTION('center_axis',(0.,0.,1.));
#477=DIRECTION('ref_axis',(-0.70710678118654,0.707106781186555,0.));
#478=DIRECTION('center_axis',(0.,1.,0.));
#479=DIRECTION('ref_axis',(-1.,0.,0.));
#480=DIRECTION('',(0.,0.,1.));
#481=DIRECTION('',(1.,0.,0.));
#482=DIRECTION('center_axis',(0.,0.,1.));
#483=DIRECTION('ref_axis',(0.707106781186548,0.707106781186548,0.));
#484=DIRECTION('',(0.,0.,-1.));
#485=DIRECTION('center_axis',(0.,0.,1.));
#486=DIRECTION('ref_axis',(0.707106781186548,0.707106781186548,0.));
#487=DIRECTION('center_axis',(1.,0.,0.));
#488=DIRECTION('ref_axis',(0.,1.,0.));
#489=DIRECTION('',(0.,0.,1.));
#490=DIRECTION('',(0.,-1.,0.));
#491=DIRECTION('center_axis',(0.,0.,1.));
#492=DIRECTION('ref_axis',(0.707106781186548,-0.707106781186548,0.));
#493=DIRECTION('',(0.,0.,-1.));
#494=DIRECTION('center_axis',(0.,0.,1.));
#495=DIRECTION('ref_axis',(0.707106781186548,-0.707106781186548,0.));
#496=DIRECTION('center_axis',(0.,-1.,0.));
#497=DIRECTION('ref_axis',(1.,0.,0.));
#498=DIRECTION('',(-1.,0.,0.));
#499=DIRECTION('center_axis',(1.,0.,0.));
#500=DIRECTION('ref_axis',(0.,1.,0.));
#501=DIRECTION('',(0.,-1.,0.));
#502=DIRECTION('',(0.,0.,1.));
#503=DIRECTION('',(0.,0.,1.));
#504=DIRECTION('',(0.,-1.,0.));
#505=DIRECTION('center_axis',(0.,-1.,0.));
#506=DIRECTION('ref_axis',(1.,0.,0.));
#507=DIRECTION('',(-1.,0.,0.));
#508=DIRECTION('',(0.,0.,1.));
#509=DIRECTION('center_axis',(0.,1.,0.));
#510=DIRECTION('ref_axis',(-1.,0.,0.));
#511=DIRECTION('',(1.,0.,0.));
#512=DIRECTION('',(0.,0.,1.));
#513=DIRECTION('center_axis',(-1.,0.,0.));
#514=DIRECTION('ref_axis',(0.,-1.,0.));
#515=DIRECTION('',(0.,1.,0.));
#516=DIRECTION('center_axis',(0.,0.,1.));
#517=DIRECTION('ref_axis',(1.,0.,0.));
#518=DIRECTION('center_axis',(0.,0.,1.));
#519=DIRECTION('ref_axis',(1.,0.,0.));
#520=CARTESIAN_POINT('',(0.,0.,0.));
#521=CARTESIAN_POINT('Origin',(-124.000001847744,-13.5000002011657,5.00000007450581));
#522=CARTESIAN_POINT('',(-124.000001847744,-2.00000002980232,3.));
#523=CARTESIAN_POINT('',(-124.000001847744,-25.000000372529,3.));
#524=CARTESIAN_POINT('',(-124.000001847744,-31.5000004693866,3.));
#525=CARTESIAN_POINT('',(-124.000001847744,-2.00000002980232,0.));
#526=CARTESIAN_POINT('',(-124.000001847744,-2.00000002980232,10.0000001490116));
#527=CARTESIAN_POINT('',(-124.000001847744,-25.000000372529,0.));
#528=CARTESIAN_POINT('',(-124.000001847744,-17.250000257045,0.));
#529=CARTESIAN_POINT('',(-124.000001847744,-25.000000372529,0.));
#530=CARTESIAN_POINT('Origin',(-134.000001847744,-25.000000372529,10.0000001490116));
#531=CARTESIAN_POINT('',(-134.000001847744,-25.000000372529,10.0000001490116));
#532=CARTESIAN_POINT('',(-134.000001847744,-25.000000372529,0.));
#533=CARTESIAN_POINT('',(-134.000001847744,-25.000000372529,5.00000007450581));
#534=CARTESIAN_POINT('',(-124.000001847744,-25.000000372529,10.0000001490116));
#535=CARTESIAN_POINT('',(-134.000001847744,-25.000000372529,10.0000001490116));
#536=CARTESIAN_POINT('',(-124.000001847744,-25.000000372529,5.00000007450581));
#537=CARTESIAN_POINT('',(-98.000001385808,-25.000000372529,0.));
#538=CARTESIAN_POINT('Origin',(-134.000001847744,-2.00000002980232,10.0000001490116));
#539=CARTESIAN_POINT('',(-134.000001847744,-2.00000002980232,10.0000001490116));
#540=CARTESIAN_POINT('',(-134.000001847744,3.99999998509884,10.0000001490116));
#541=CARTESIAN_POINT('',(-124.000001847744,-2.00000002980232,10.0000001490116));
#542=CARTESIAN_POINT('',(-134.000001847744,-2.00000002980232,10.0000001490116));
#543=CARTESIAN_POINT('',(-124.000001847744,-22.0000003278255,10.0000001490116));
#544=CARTESIAN_POINT('Origin',(-134.000001847744,-2.00000002980232,0.));
#545=CARTESIAN_POINT('',(-134.000001847744,-2.00000002980232,0.));
#546=CARTESIAN_POINT('',(-134.000001847744,-2.00000002980232,0.));
#547=CARTESIAN_POINT('',(-98.000001385808,-2.00000002980232,0.));
#548=CARTESIAN_POINT('',(-124.000001847744,-2.00000002980232,0.));
#549=CARTESIAN_POINT('Origin',(-134.000001847744,10.,0.));
#550=CARTESIAN_POINT('',(-134.000001847744,-51.0000006258488,0.));
#551=CARTESIAN_POINT('',(-134.000001847744,-52.0000006258488,0.));
#552=CARTESIAN_POINT('',(-134.000001847744,-51.0000006258488,13.));
#553=CARTESIAN_POINT('',(-134.000001847744,-51.0000006258488,0.));
#554=CARTESIAN_POINT('',(-134.000001847744,9.,13.));
#555=CARTESIAN_POINT('',(-134.000001847744,-52.0000006258488,13.));
#556=CARTESIAN_POINT('',(-134.000001847744,9.,0.));
#557=CARTESIAN_POINT('',(-134.000001847744,9.,0.));
#558=CARTESIAN_POINT('',(-134.000001847744,-52.0000006258488,0.));
#559=CARTESIAN_POINT('Origin',(-133.000001847744,-51.0000006258488,0.));
#560=CARTESIAN_POINT('',(-133.000001847744,-52.0000006258488,13.));
#561=CARTESIAN_POINT('Origin',(-133.000001847744,-51.0000006258488,13.));
#562=CARTESIAN_POINT('',(-133.000001847744,-52.0000006258488,0.));
#563=CARTESIAN_POINT('Origin',(-133.000001847744,-51.0000006258488,0.));
#564=CARTESIAN_POINT('',(-133.000001847744,-52.0000006258488,0.));
#565=CARTESIAN_POINT('Origin',(-62.000000923872,-21.0000003129244,13.));
#566=CARTESIAN_POINT('',(9.,-52.0000006258488,13.));
#567=CARTESIAN_POINT('',(10.,-52.0000006258488,13.));
#568=CARTESIAN_POINT('',(10.,-51.0000006258488,13.));
#569=CARTESIAN_POINT('Origin',(9.,-51.0000006258488,13.));
#570=CARTESIAN_POINT('',(10.,9.,13.));
#571=CARTESIAN_POINT('',(10.,10.,13.));
#572=CARTESIAN_POINT('',(9.,10.,13.));
#573=CARTESIAN_POINT('Origin',(9.,9.,13.));
#574=CARTESIAN_POINT('',(-133.000001847744,10.,13.));
#575=CARTESIAN_POINT('',(-134.000001847744,10.,13.));
#576=CARTESIAN_POINT('Origin',(-133.000001847744,9.,13.));
#577=CARTESIAN_POINT('',(0.,0.,13.));
#578=CARTESIAN_POINT('',(0.,-42.0000006258488,13.));
#579=CARTESIAN_POINT('',(0.,-42.0000006258488,13.));
#580=CARTESIAN_POINT('',(-124.000001847744,-42.0000006258488,13.));
#581=CARTESIAN_POINT('',(-124.000001847744,-42.0000006258488,13.));
#582=CARTESIAN_POINT('',(-124.000001847744,0.,13.));
#583=CARTESIAN_POINT('',(-124.000001847744,0.,13.));
#584=CARTESIAN_POINT('',(0.,0.,13.));
#585=CARTESIAN_POINT('Origin',(-133.000001847744,9.,0.));
#586=CARTESIAN_POINT('',(-133.000001847744,10.,0.));
#587=CARTESIAN_POINT('',(-133.000001847744,10.,0.));
#588=CARTESIAN_POINT('Origin',(-133.000001847744,9.,0.));
#589=CARTESIAN_POINT('Origin',(10.,10.,0.));
#590=CARTESIAN_POINT('',(9.,10.,0.));
#591=CARTESIAN_POINT('',(9.,10.,0.));
#592=CARTESIAN_POINT('',(-134.000001847744,10.,0.));
#593=CARTESIAN_POINT('Origin',(9.,9.,0.));
#594=CARTESIAN_POINT('',(10.,9.,0.));
#595=CARTESIAN_POINT('',(10.,9.,0.));
#596=CARTESIAN_POINT('Origin',(9.,9.,0.));
#597=CARTESIAN_POINT('Origin',(10.,-52.0000006258488,0.));
#598=CARTESIAN_POINT('',(10.,-51.0000006258488,0.));
#599=CARTESIAN_POINT('',(10.,-51.0000006258488,0.));
#600=CARTESIAN_POINT('',(10.,10.,0.));
#601=CARTESIAN_POINT('Origin',(9.,-51.0000006258488,0.));
#602=CARTESIAN_POINT('',(9.,-52.0000006258488,0.));
#603=CARTESIAN_POINT('',(9.,-52.0000006258488,0.));
#604=CARTESIAN_POINT('Origin',(9.,-51.0000006258488,0.));
#605=CARTESIAN_POINT('Origin',(-134.000001847744,-52.0000006258488,0.));
#606=CARTESIAN_POINT('',(10.,-52.0000006258488,0.));
#607=CARTESIAN_POINT('Origin',(-124.000001847744,-42.0000006258488,0.));
#608=CARTESIAN_POINT('',(-124.000001847744,0.,3.));
#609=CARTESIAN_POINT('',(-124.000001847744,-31.5000004693866,3.));
#610=CARTESIAN_POINT('',(-124.000001847744,0.,0.));
#611=CARTESIAN_POINT('',(-124.000001847744,-42.0000006258488,3.));
#612=CARTESIAN_POINT('',(-124.000001847744,-42.0000006258488,0.));
#613=CARTESIAN_POINT('',(-124.000001847744,-31.5000004693866,3.));
#614=CARTESIAN_POINT('Origin',(-124.000001847744,0.,0.));
#615=CARTESIAN_POINT('',(0.,0.,3.));
#616=CARTESIAN_POINT('',(-93.000001385808,0.,3.));
#617=CARTESIAN_POINT('',(0.,0.,0.));
#618=CARTESIAN_POINT('Origin',(0.,-42.0000006258488,0.));
#619=CARTESIAN_POINT('',(0.,-42.0000006258488,3.));
#620=CARTESIAN_POINT('',(-31.000000461936,-42.0000006258488,3.));
#621=CARTESIAN_POINT('',(0.,-42.0000006258488,0.));
#622=CARTESIAN_POINT('Origin',(0.,0.,0.));
#623=CARTESIAN_POINT('',(0.,-10.5000001564622,3.));
#624=CARTESIAN_POINT('Origin',(-62.000000923872,-21.0000003129244,3.));
#625=CARTESIAN_POINT('Origin',(-62.000000923872,-21.0000003129244,0.));
#626=UNCERTAINTY_MEASURE_WITH_UNIT(LENGTH_MEASURE(0.01),#630,
'DISTANCE_ACCURACY_VALUE',
'Maximum model space distance between geometric entities at asserted c
onnectivities');
#627=UNCERTAINTY_MEASURE_WITH_UNIT(LENGTH_MEASURE(0.01),#630,
'DISTANCE_ACCURACY_VALUE',
'Maximum model space distance between geometric entities at asserted c
onnectivities');
#628=(
GEOMETRIC_REPRESENTATION_CONTEXT(3)
GLOBAL_UNCERTAINTY_ASSIGNED_CONTEXT((#626))
GLOBAL_UNIT_ASSIGNED_CONTEXT((#630,#632,#633))
REPRESENTATION_CONTEXT('','3D')
);
#629=(
GEOMETRIC_REPRESENTATION_CONTEXT(3)
GLOBAL_UNCERTAINTY_ASSIGNED_CONTEXT((#627))
GLOBAL_UNIT_ASSIGNED_CONTEXT((#630,#632,#633))
REPRESENTATION_CONTEXT('','3D')
);
#630=(
LENGTH_UNIT()
NAMED_UNIT(*)
SI_UNIT(.MILLI.,.METRE.)
);
#631=(
LENGTH_UNIT()
NAMED_UNIT(*)
SI_UNIT($,.METRE.)
);
#632=(
NAMED_UNIT(*)
PLANE_ANGLE_UNIT()
SI_UNIT($,.RADIAN.)
);
#633=(
NAMED_UNIT(*)
SI_UNIT($,.STERADIAN.)
SOLID_ANGLE_UNIT()
);
#634=SHAPE_DEFINITION_REPRESENTATION(#635,#636);
#635=PRODUCT_DEFINITION_SHAPE('',$,#638);
#636=SHAPE_REPRESENTATION('',(#392),#628);
#637=PRODUCT_DEFINITION_CONTEXT('part definition',#642,'design');
#638=PRODUCT_DEFINITION('2026-07-09-19-41-59-376','XacPAD v2 case',#639,
#637);
#639=PRODUCT_DEFINITION_FORMATION('',$,#644);
#640=PRODUCT_RELATED_PRODUCT_CATEGORY('XacPAD v2 case','XacPAD v2 case',
(#644));
#641=APPLICATION_PROTOCOL_DEFINITION('international standard',
'automotive_design',2009,#642);
#642=APPLICATION_CONTEXT(
'Core Data for Automotive Mechanical Design Process');
#643=PRODUCT_CONTEXT('part definition',#642,'mechanical');
#644=PRODUCT('2026-07-09-19-41-59-376','XacPAD v2 case',$,(#643));
#645=PRESENTATION_STYLE_ASSIGNMENT((#646));
#646=SURFACE_STYLE_USAGE(.BOTH.,#647);
#647=SURFACE_SIDE_STYLE('',(#648));
#648=SURFACE_STYLE_FILL_AREA(#649);
#649=FILL_AREA_STYLE('Acero - Satinado',(#650));
#650=FILL_AREA_STYLE_COLOUR('Acero - Satinado',#651);
#651=COLOUR_RGB('Acero - Satinado',0.627450980392157,0.627450980392157,
0.627450980392157);
ENDSEC;
END-ISO-10303-21;
