%TF.GenerationSoftware,KiCad,Pcbnew,9.0.6*%
%TF.CreationDate,2026-08-14T19:33:17+02:00*%
%TF.ProjectId,XacPAD2kicad,58616350-4144-4326-9b69-6361642e6b69,rev?*%
%TF.SameCoordinates,Original*%
%TF.FileFunction,Legend,Bot*%
%TF.FilePolarity,Positive*%
%FSLAX46Y46*%
G04 Gerber Fmt 4.6, Leading zero omitted, Abs format (unit mm)*
G04 Created by KiCad (PCBNEW 9.0.6) date 2026-08-14 19:33:17*
%MOMM*%
%LPD*%
G01*
G04 APERTURE LIST*
%ADD10C,0.200000*%
%ADD11C,0.150000*%
%ADD12C,0.101600*%
%ADD13C,0.120000*%
%ADD14C,0.127000*%
%ADD15C,0.254000*%
%ADD16C,0.025400*%
G04 APERTURE END LIST*
D10*
X245538094Y-140352219D02*
X245538094Y-139352219D01*
X245538094Y-139352219D02*
X245299999Y-139352219D01*
X245299999Y-139352219D02*
X245157142Y-139399838D01*
X245157142Y-139399838D02*
X245061904Y-139495076D01*
X245061904Y-139495076D02*
X245014285Y-139590314D01*
X245014285Y-139590314D02*
X244966666Y-139780790D01*
X244966666Y-139780790D02*
X244966666Y-139923647D01*
X244966666Y-139923647D02*
X245014285Y-140114123D01*
X245014285Y-140114123D02*
X245061904Y-140209361D01*
X245061904Y-140209361D02*
X245157142Y-140304600D01*
X245157142Y-140304600D02*
X245299999Y-140352219D01*
X245299999Y-140352219D02*
X245538094Y-140352219D01*
X244061904Y-139352219D02*
X244538094Y-139352219D01*
X244538094Y-139352219D02*
X244585713Y-139828409D01*
X244585713Y-139828409D02*
X244538094Y-139780790D01*
X244538094Y-139780790D02*
X244442856Y-139733171D01*
X244442856Y-139733171D02*
X244204761Y-139733171D01*
X244204761Y-139733171D02*
X244109523Y-139780790D01*
X244109523Y-139780790D02*
X244061904Y-139828409D01*
X244061904Y-139828409D02*
X244014285Y-139923647D01*
X244014285Y-139923647D02*
X244014285Y-140161742D01*
X244014285Y-140161742D02*
X244061904Y-140256980D01*
X244061904Y-140256980D02*
X244109523Y-140304600D01*
X244109523Y-140304600D02*
X244204761Y-140352219D01*
X244204761Y-140352219D02*
X244442856Y-140352219D01*
X244442856Y-140352219D02*
X244538094Y-140304600D01*
X244538094Y-140304600D02*
X244585713Y-140256980D01*
D11*
X222138094Y-113334819D02*
X222138094Y-112334819D01*
X222138094Y-112334819D02*
X221899999Y-112334819D01*
X221899999Y-112334819D02*
X221757142Y-112382438D01*
X221757142Y-112382438D02*
X221661904Y-112477676D01*
X221661904Y-112477676D02*
X221614285Y-112572914D01*
X221614285Y-112572914D02*
X221566666Y-112763390D01*
X221566666Y-112763390D02*
X221566666Y-112906247D01*
X221566666Y-112906247D02*
X221614285Y-113096723D01*
X221614285Y-113096723D02*
X221661904Y-113191961D01*
X221661904Y-113191961D02*
X221757142Y-113287200D01*
X221757142Y-113287200D02*
X221899999Y-113334819D01*
X221899999Y-113334819D02*
X222138094Y-113334819D01*
X220709523Y-112334819D02*
X220899999Y-112334819D01*
X220899999Y-112334819D02*
X220995237Y-112382438D01*
X220995237Y-112382438D02*
X221042856Y-112430057D01*
X221042856Y-112430057D02*
X221138094Y-112572914D01*
X221138094Y-112572914D02*
X221185713Y-112763390D01*
X221185713Y-112763390D02*
X221185713Y-113144342D01*
X221185713Y-113144342D02*
X221138094Y-113239580D01*
X221138094Y-113239580D02*
X221090475Y-113287200D01*
X221090475Y-113287200D02*
X220995237Y-113334819D01*
X220995237Y-113334819D02*
X220804761Y-113334819D01*
X220804761Y-113334819D02*
X220709523Y-113287200D01*
X220709523Y-113287200D02*
X220661904Y-113239580D01*
X220661904Y-113239580D02*
X220614285Y-113144342D01*
X220614285Y-113144342D02*
X220614285Y-112906247D01*
X220614285Y-112906247D02*
X220661904Y-112811009D01*
X220661904Y-112811009D02*
X220709523Y-112763390D01*
X220709523Y-112763390D02*
X220804761Y-112715771D01*
X220804761Y-112715771D02*
X220995237Y-112715771D01*
X220995237Y-112715771D02*
X221090475Y-112763390D01*
X221090475Y-112763390D02*
X221138094Y-112811009D01*
X221138094Y-112811009D02*
X221185713Y-112906247D01*
X225471904Y-113654819D02*
X225471904Y-112654819D01*
X224900476Y-113654819D02*
X225329047Y-113083390D01*
X224900476Y-112654819D02*
X225471904Y-113226247D01*
X185014285Y-113934819D02*
X185014285Y-112934819D01*
X185014285Y-112934819D02*
X184776190Y-112934819D01*
X184776190Y-112934819D02*
X184633333Y-112982438D01*
X184633333Y-112982438D02*
X184538095Y-113077676D01*
X184538095Y-113077676D02*
X184490476Y-113172914D01*
X184490476Y-113172914D02*
X184442857Y-113363390D01*
X184442857Y-113363390D02*
X184442857Y-113506247D01*
X184442857Y-113506247D02*
X184490476Y-113696723D01*
X184490476Y-113696723D02*
X184538095Y-113791961D01*
X184538095Y-113791961D02*
X184633333Y-113887200D01*
X184633333Y-113887200D02*
X184776190Y-113934819D01*
X184776190Y-113934819D02*
X185014285Y-113934819D01*
X183490476Y-113934819D02*
X184061904Y-113934819D01*
X183776190Y-113934819D02*
X183776190Y-112934819D01*
X183776190Y-112934819D02*
X183871428Y-113077676D01*
X183871428Y-113077676D02*
X183966666Y-113172914D01*
X183966666Y-113172914D02*
X184061904Y-113220533D01*
X182871428Y-112934819D02*
X182776190Y-112934819D01*
X182776190Y-112934819D02*
X182680952Y-112982438D01*
X182680952Y-112982438D02*
X182633333Y-113030057D01*
X182633333Y-113030057D02*
X182585714Y-113125295D01*
X182585714Y-113125295D02*
X182538095Y-113315771D01*
X182538095Y-113315771D02*
X182538095Y-113553866D01*
X182538095Y-113553866D02*
X182585714Y-113744342D01*
X182585714Y-113744342D02*
X182633333Y-113839580D01*
X182633333Y-113839580D02*
X182680952Y-113887200D01*
X182680952Y-113887200D02*
X182776190Y-113934819D01*
X182776190Y-113934819D02*
X182871428Y-113934819D01*
X182871428Y-113934819D02*
X182966666Y-113887200D01*
X182966666Y-113887200D02*
X183014285Y-113839580D01*
X183014285Y-113839580D02*
X183061904Y-113744342D01*
X183061904Y-113744342D02*
X183109523Y-113553866D01*
X183109523Y-113553866D02*
X183109523Y-113315771D01*
X183109523Y-113315771D02*
X183061904Y-113125295D01*
X183061904Y-113125295D02*
X183014285Y-113030057D01*
X183014285Y-113030057D02*
X182966666Y-112982438D01*
X182966666Y-112982438D02*
X182871428Y-112934819D01*
X187871904Y-114254819D02*
X187871904Y-113254819D01*
X187300476Y-114254819D02*
X187729047Y-113683390D01*
X187300476Y-113254819D02*
X187871904Y-113826247D01*
D10*
X245538094Y-132552219D02*
X245538094Y-131552219D01*
X245538094Y-131552219D02*
X245299999Y-131552219D01*
X245299999Y-131552219D02*
X245157142Y-131599838D01*
X245157142Y-131599838D02*
X245061904Y-131695076D01*
X245061904Y-131695076D02*
X245014285Y-131790314D01*
X245014285Y-131790314D02*
X244966666Y-131980790D01*
X244966666Y-131980790D02*
X244966666Y-132123647D01*
X244966666Y-132123647D02*
X245014285Y-132314123D01*
X245014285Y-132314123D02*
X245061904Y-132409361D01*
X245061904Y-132409361D02*
X245157142Y-132504600D01*
X245157142Y-132504600D02*
X245299999Y-132552219D01*
X245299999Y-132552219D02*
X245538094Y-132552219D01*
X244633332Y-131552219D02*
X244014285Y-131552219D01*
X244014285Y-131552219D02*
X244347618Y-131933171D01*
X244347618Y-131933171D02*
X244204761Y-131933171D01*
X244204761Y-131933171D02*
X244109523Y-131980790D01*
X244109523Y-131980790D02*
X244061904Y-132028409D01*
X244061904Y-132028409D02*
X244014285Y-132123647D01*
X244014285Y-132123647D02*
X244014285Y-132361742D01*
X244014285Y-132361742D02*
X244061904Y-132456980D01*
X244061904Y-132456980D02*
X244109523Y-132504600D01*
X244109523Y-132504600D02*
X244204761Y-132552219D01*
X244204761Y-132552219D02*
X244490475Y-132552219D01*
X244490475Y-132552219D02*
X244585713Y-132504600D01*
X244585713Y-132504600D02*
X244633332Y-132456980D01*
D11*
X203738094Y-114334819D02*
X203738094Y-113334819D01*
X203738094Y-113334819D02*
X203499999Y-113334819D01*
X203499999Y-113334819D02*
X203357142Y-113382438D01*
X203357142Y-113382438D02*
X203261904Y-113477676D01*
X203261904Y-113477676D02*
X203214285Y-113572914D01*
X203214285Y-113572914D02*
X203166666Y-113763390D01*
X203166666Y-113763390D02*
X203166666Y-113906247D01*
X203166666Y-113906247D02*
X203214285Y-114096723D01*
X203214285Y-114096723D02*
X203261904Y-114191961D01*
X203261904Y-114191961D02*
X203357142Y-114287200D01*
X203357142Y-114287200D02*
X203499999Y-114334819D01*
X203499999Y-114334819D02*
X203738094Y-114334819D01*
X202595237Y-113763390D02*
X202690475Y-113715771D01*
X202690475Y-113715771D02*
X202738094Y-113668152D01*
X202738094Y-113668152D02*
X202785713Y-113572914D01*
X202785713Y-113572914D02*
X202785713Y-113525295D01*
X202785713Y-113525295D02*
X202738094Y-113430057D01*
X202738094Y-113430057D02*
X202690475Y-113382438D01*
X202690475Y-113382438D02*
X202595237Y-113334819D01*
X202595237Y-113334819D02*
X202404761Y-113334819D01*
X202404761Y-113334819D02*
X202309523Y-113382438D01*
X202309523Y-113382438D02*
X202261904Y-113430057D01*
X202261904Y-113430057D02*
X202214285Y-113525295D01*
X202214285Y-113525295D02*
X202214285Y-113572914D01*
X202214285Y-113572914D02*
X202261904Y-113668152D01*
X202261904Y-113668152D02*
X202309523Y-113715771D01*
X202309523Y-113715771D02*
X202404761Y-113763390D01*
X202404761Y-113763390D02*
X202595237Y-113763390D01*
X202595237Y-113763390D02*
X202690475Y-113811009D01*
X202690475Y-113811009D02*
X202738094Y-113858628D01*
X202738094Y-113858628D02*
X202785713Y-113953866D01*
X202785713Y-113953866D02*
X202785713Y-114144342D01*
X202785713Y-114144342D02*
X202738094Y-114239580D01*
X202738094Y-114239580D02*
X202690475Y-114287200D01*
X202690475Y-114287200D02*
X202595237Y-114334819D01*
X202595237Y-114334819D02*
X202404761Y-114334819D01*
X202404761Y-114334819D02*
X202309523Y-114287200D01*
X202309523Y-114287200D02*
X202261904Y-114239580D01*
X202261904Y-114239580D02*
X202214285Y-114144342D01*
X202214285Y-114144342D02*
X202214285Y-113953866D01*
X202214285Y-113953866D02*
X202261904Y-113858628D01*
X202261904Y-113858628D02*
X202309523Y-113811009D01*
X202309523Y-113811009D02*
X202404761Y-113763390D01*
X207071904Y-114654819D02*
X207071904Y-113654819D01*
X206500476Y-114654819D02*
X206929047Y-114083390D01*
X206500476Y-113654819D02*
X207071904Y-114226247D01*
D10*
X245538094Y-124552219D02*
X245538094Y-123552219D01*
X245538094Y-123552219D02*
X245299999Y-123552219D01*
X245299999Y-123552219D02*
X245157142Y-123599838D01*
X245157142Y-123599838D02*
X245061904Y-123695076D01*
X245061904Y-123695076D02*
X245014285Y-123790314D01*
X245014285Y-123790314D02*
X244966666Y-123980790D01*
X244966666Y-123980790D02*
X244966666Y-124123647D01*
X244966666Y-124123647D02*
X245014285Y-124314123D01*
X245014285Y-124314123D02*
X245061904Y-124409361D01*
X245061904Y-124409361D02*
X245157142Y-124504600D01*
X245157142Y-124504600D02*
X245299999Y-124552219D01*
X245299999Y-124552219D02*
X245538094Y-124552219D01*
X244014285Y-124552219D02*
X244585713Y-124552219D01*
X244299999Y-124552219D02*
X244299999Y-123552219D01*
X244299999Y-123552219D02*
X244395237Y-123695076D01*
X244395237Y-123695076D02*
X244490475Y-123790314D01*
X244490475Y-123790314D02*
X244585713Y-123837933D01*
D11*
X166014285Y-113934819D02*
X166014285Y-112934819D01*
X166014285Y-112934819D02*
X165776190Y-112934819D01*
X165776190Y-112934819D02*
X165633333Y-112982438D01*
X165633333Y-112982438D02*
X165538095Y-113077676D01*
X165538095Y-113077676D02*
X165490476Y-113172914D01*
X165490476Y-113172914D02*
X165442857Y-113363390D01*
X165442857Y-113363390D02*
X165442857Y-113506247D01*
X165442857Y-113506247D02*
X165490476Y-113696723D01*
X165490476Y-113696723D02*
X165538095Y-113791961D01*
X165538095Y-113791961D02*
X165633333Y-113887200D01*
X165633333Y-113887200D02*
X165776190Y-113934819D01*
X165776190Y-113934819D02*
X166014285Y-113934819D01*
X164490476Y-113934819D02*
X165061904Y-113934819D01*
X164776190Y-113934819D02*
X164776190Y-112934819D01*
X164776190Y-112934819D02*
X164871428Y-113077676D01*
X164871428Y-113077676D02*
X164966666Y-113172914D01*
X164966666Y-113172914D02*
X165061904Y-113220533D01*
X164109523Y-113030057D02*
X164061904Y-112982438D01*
X164061904Y-112982438D02*
X163966666Y-112934819D01*
X163966666Y-112934819D02*
X163728571Y-112934819D01*
X163728571Y-112934819D02*
X163633333Y-112982438D01*
X163633333Y-112982438D02*
X163585714Y-113030057D01*
X163585714Y-113030057D02*
X163538095Y-113125295D01*
X163538095Y-113125295D02*
X163538095Y-113220533D01*
X163538095Y-113220533D02*
X163585714Y-113363390D01*
X163585714Y-113363390D02*
X164157142Y-113934819D01*
X164157142Y-113934819D02*
X163538095Y-113934819D01*
X168871904Y-114254819D02*
X168871904Y-113254819D01*
X168300476Y-114254819D02*
X168729047Y-113683390D01*
X168300476Y-113254819D02*
X168871904Y-113826247D01*
X185014285Y-133134819D02*
X185014285Y-132134819D01*
X185014285Y-132134819D02*
X184776190Y-132134819D01*
X184776190Y-132134819D02*
X184633333Y-132182438D01*
X184633333Y-132182438D02*
X184538095Y-132277676D01*
X184538095Y-132277676D02*
X184490476Y-132372914D01*
X184490476Y-132372914D02*
X184442857Y-132563390D01*
X184442857Y-132563390D02*
X184442857Y-132706247D01*
X184442857Y-132706247D02*
X184490476Y-132896723D01*
X184490476Y-132896723D02*
X184538095Y-132991961D01*
X184538095Y-132991961D02*
X184633333Y-133087200D01*
X184633333Y-133087200D02*
X184776190Y-133134819D01*
X184776190Y-133134819D02*
X185014285Y-133134819D01*
X183490476Y-133134819D02*
X184061904Y-133134819D01*
X183776190Y-133134819D02*
X183776190Y-132134819D01*
X183776190Y-132134819D02*
X183871428Y-132277676D01*
X183871428Y-132277676D02*
X183966666Y-132372914D01*
X183966666Y-132372914D02*
X184061904Y-132420533D01*
X182538095Y-133134819D02*
X183109523Y-133134819D01*
X182823809Y-133134819D02*
X182823809Y-132134819D01*
X182823809Y-132134819D02*
X182919047Y-132277676D01*
X182919047Y-132277676D02*
X183014285Y-132372914D01*
X183014285Y-132372914D02*
X183109523Y-132420533D01*
X187871904Y-133454819D02*
X187871904Y-132454819D01*
X187300476Y-133454819D02*
X187729047Y-132883390D01*
X187300476Y-132454819D02*
X187871904Y-133026247D01*
X222538094Y-133134819D02*
X222538094Y-132134819D01*
X222538094Y-132134819D02*
X222299999Y-132134819D01*
X222299999Y-132134819D02*
X222157142Y-132182438D01*
X222157142Y-132182438D02*
X222061904Y-132277676D01*
X222061904Y-132277676D02*
X222014285Y-132372914D01*
X222014285Y-132372914D02*
X221966666Y-132563390D01*
X221966666Y-132563390D02*
X221966666Y-132706247D01*
X221966666Y-132706247D02*
X222014285Y-132896723D01*
X222014285Y-132896723D02*
X222061904Y-132991961D01*
X222061904Y-132991961D02*
X222157142Y-133087200D01*
X222157142Y-133087200D02*
X222299999Y-133134819D01*
X222299999Y-133134819D02*
X222538094Y-133134819D01*
X221633332Y-132134819D02*
X220966666Y-132134819D01*
X220966666Y-132134819D02*
X221395237Y-133134819D01*
X225871904Y-133454819D02*
X225871904Y-132454819D01*
X225300476Y-133454819D02*
X225729047Y-132883390D01*
X225300476Y-132454819D02*
X225871904Y-133026247D01*
D10*
X237138094Y-136552219D02*
X237138094Y-135552219D01*
X237138094Y-135552219D02*
X236899999Y-135552219D01*
X236899999Y-135552219D02*
X236757142Y-135599838D01*
X236757142Y-135599838D02*
X236661904Y-135695076D01*
X236661904Y-135695076D02*
X236614285Y-135790314D01*
X236614285Y-135790314D02*
X236566666Y-135980790D01*
X236566666Y-135980790D02*
X236566666Y-136123647D01*
X236566666Y-136123647D02*
X236614285Y-136314123D01*
X236614285Y-136314123D02*
X236661904Y-136409361D01*
X236661904Y-136409361D02*
X236757142Y-136504600D01*
X236757142Y-136504600D02*
X236899999Y-136552219D01*
X236899999Y-136552219D02*
X237138094Y-136552219D01*
X235709523Y-135885552D02*
X235709523Y-136552219D01*
X235947618Y-135504600D02*
X236185713Y-136218885D01*
X236185713Y-136218885D02*
X235566666Y-136218885D01*
D12*
X258914485Y-135053916D02*
X259634152Y-135053916D01*
X259634152Y-135053916D02*
X259718818Y-135096250D01*
X259718818Y-135096250D02*
X259761152Y-135138583D01*
X259761152Y-135138583D02*
X259803485Y-135223250D01*
X259803485Y-135223250D02*
X259803485Y-135392583D01*
X259803485Y-135392583D02*
X259761152Y-135477250D01*
X259761152Y-135477250D02*
X259718818Y-135519583D01*
X259718818Y-135519583D02*
X259634152Y-135561916D01*
X259634152Y-135561916D02*
X258914485Y-135561916D01*
X259803485Y-136450916D02*
X259803485Y-135942916D01*
X259803485Y-136196916D02*
X258914485Y-136196916D01*
X258914485Y-136196916D02*
X259041485Y-136112249D01*
X259041485Y-136112249D02*
X259126152Y-136027583D01*
X259126152Y-136027583D02*
X259168485Y-135942916D01*
D11*
X261982680Y-137255058D02*
X260982680Y-136588392D01*
X261982680Y-136588392D02*
X260982680Y-137255058D01*
X260982680Y-136207439D02*
X261982680Y-136207439D01*
X261268395Y-135778868D02*
X261268395Y-135302678D01*
X260982680Y-135874106D02*
X261982680Y-135540773D01*
X261982680Y-135540773D02*
X260982680Y-135207440D01*
X261982680Y-134683630D02*
X261982680Y-134493154D01*
X261982680Y-134493154D02*
X261935061Y-134397916D01*
X261935061Y-134397916D02*
X261839823Y-134302678D01*
X261839823Y-134302678D02*
X261649347Y-134255059D01*
X261649347Y-134255059D02*
X261316014Y-134255059D01*
X261316014Y-134255059D02*
X261125538Y-134302678D01*
X261125538Y-134302678D02*
X261030300Y-134397916D01*
X261030300Y-134397916D02*
X260982680Y-134493154D01*
X260982680Y-134493154D02*
X260982680Y-134683630D01*
X260982680Y-134683630D02*
X261030300Y-134778868D01*
X261030300Y-134778868D02*
X261125538Y-134874106D01*
X261125538Y-134874106D02*
X261316014Y-134921725D01*
X261316014Y-134921725D02*
X261649347Y-134921725D01*
X261649347Y-134921725D02*
X261839823Y-134874106D01*
X261839823Y-134874106D02*
X261935061Y-134778868D01*
X261935061Y-134778868D02*
X261982680Y-134683630D01*
X263030300Y-140493154D02*
X262982680Y-140350297D01*
X262982680Y-140350297D02*
X262982680Y-140112202D01*
X262982680Y-140112202D02*
X263030300Y-140016964D01*
X263030300Y-140016964D02*
X263077919Y-139969345D01*
X263077919Y-139969345D02*
X263173157Y-139921726D01*
X263173157Y-139921726D02*
X263268395Y-139921726D01*
X263268395Y-139921726D02*
X263363633Y-139969345D01*
X263363633Y-139969345D02*
X263411252Y-140016964D01*
X263411252Y-140016964D02*
X263458871Y-140112202D01*
X263458871Y-140112202D02*
X263506490Y-140302678D01*
X263506490Y-140302678D02*
X263554109Y-140397916D01*
X263554109Y-140397916D02*
X263601728Y-140445535D01*
X263601728Y-140445535D02*
X263696966Y-140493154D01*
X263696966Y-140493154D02*
X263792204Y-140493154D01*
X263792204Y-140493154D02*
X263887442Y-140445535D01*
X263887442Y-140445535D02*
X263935061Y-140397916D01*
X263935061Y-140397916D02*
X263982680Y-140302678D01*
X263982680Y-140302678D02*
X263982680Y-140064583D01*
X263982680Y-140064583D02*
X263935061Y-139921726D01*
X263030300Y-139112202D02*
X262982680Y-139207440D01*
X262982680Y-139207440D02*
X262982680Y-139397916D01*
X262982680Y-139397916D02*
X263030300Y-139493154D01*
X263030300Y-139493154D02*
X263125538Y-139540773D01*
X263125538Y-139540773D02*
X263506490Y-139540773D01*
X263506490Y-139540773D02*
X263601728Y-139493154D01*
X263601728Y-139493154D02*
X263649347Y-139397916D01*
X263649347Y-139397916D02*
X263649347Y-139207440D01*
X263649347Y-139207440D02*
X263601728Y-139112202D01*
X263601728Y-139112202D02*
X263506490Y-139064583D01*
X263506490Y-139064583D02*
X263411252Y-139064583D01*
X263411252Y-139064583D02*
X263316014Y-139540773D01*
X263030300Y-138255059D02*
X262982680Y-138350297D01*
X262982680Y-138350297D02*
X262982680Y-138540773D01*
X262982680Y-138540773D02*
X263030300Y-138636011D01*
X263030300Y-138636011D02*
X263125538Y-138683630D01*
X263125538Y-138683630D02*
X263506490Y-138683630D01*
X263506490Y-138683630D02*
X263601728Y-138636011D01*
X263601728Y-138636011D02*
X263649347Y-138540773D01*
X263649347Y-138540773D02*
X263649347Y-138350297D01*
X263649347Y-138350297D02*
X263601728Y-138255059D01*
X263601728Y-138255059D02*
X263506490Y-138207440D01*
X263506490Y-138207440D02*
X263411252Y-138207440D01*
X263411252Y-138207440D02*
X263316014Y-138683630D01*
X263030300Y-137397916D02*
X262982680Y-137493154D01*
X262982680Y-137493154D02*
X262982680Y-137683630D01*
X262982680Y-137683630D02*
X263030300Y-137778868D01*
X263030300Y-137778868D02*
X263125538Y-137826487D01*
X263125538Y-137826487D02*
X263506490Y-137826487D01*
X263506490Y-137826487D02*
X263601728Y-137778868D01*
X263601728Y-137778868D02*
X263649347Y-137683630D01*
X263649347Y-137683630D02*
X263649347Y-137493154D01*
X263649347Y-137493154D02*
X263601728Y-137397916D01*
X263601728Y-137397916D02*
X263506490Y-137350297D01*
X263506490Y-137350297D02*
X263411252Y-137350297D01*
X263411252Y-137350297D02*
X263316014Y-137826487D01*
X262982680Y-136493154D02*
X263982680Y-136493154D01*
X263030300Y-136493154D02*
X262982680Y-136588392D01*
X262982680Y-136588392D02*
X262982680Y-136778868D01*
X262982680Y-136778868D02*
X263030300Y-136874106D01*
X263030300Y-136874106D02*
X263077919Y-136921725D01*
X263077919Y-136921725D02*
X263173157Y-136969344D01*
X263173157Y-136969344D02*
X263458871Y-136969344D01*
X263458871Y-136969344D02*
X263554109Y-136921725D01*
X263554109Y-136921725D02*
X263601728Y-136874106D01*
X263601728Y-136874106D02*
X263649347Y-136778868D01*
X263649347Y-136778868D02*
X263649347Y-136588392D01*
X263649347Y-136588392D02*
X263601728Y-136493154D01*
X263030300Y-135302677D02*
X262982680Y-135159820D01*
X262982680Y-135159820D02*
X262982680Y-134921725D01*
X262982680Y-134921725D02*
X263030300Y-134826487D01*
X263030300Y-134826487D02*
X263077919Y-134778868D01*
X263077919Y-134778868D02*
X263173157Y-134731249D01*
X263173157Y-134731249D02*
X263268395Y-134731249D01*
X263268395Y-134731249D02*
X263363633Y-134778868D01*
X263363633Y-134778868D02*
X263411252Y-134826487D01*
X263411252Y-134826487D02*
X263458871Y-134921725D01*
X263458871Y-134921725D02*
X263506490Y-135112201D01*
X263506490Y-135112201D02*
X263554109Y-135207439D01*
X263554109Y-135207439D02*
X263601728Y-135255058D01*
X263601728Y-135255058D02*
X263696966Y-135302677D01*
X263696966Y-135302677D02*
X263792204Y-135302677D01*
X263792204Y-135302677D02*
X263887442Y-135255058D01*
X263887442Y-135255058D02*
X263935061Y-135207439D01*
X263935061Y-135207439D02*
X263982680Y-135112201D01*
X263982680Y-135112201D02*
X263982680Y-134874106D01*
X263982680Y-134874106D02*
X263935061Y-134731249D01*
X263649347Y-134445534D02*
X263649347Y-134064582D01*
X263982680Y-134302677D02*
X263125538Y-134302677D01*
X263125538Y-134302677D02*
X263030300Y-134255058D01*
X263030300Y-134255058D02*
X262982680Y-134159820D01*
X262982680Y-134159820D02*
X262982680Y-134064582D01*
X263649347Y-133302677D02*
X262982680Y-133302677D01*
X263649347Y-133731248D02*
X263125538Y-133731248D01*
X263125538Y-133731248D02*
X263030300Y-133683629D01*
X263030300Y-133683629D02*
X262982680Y-133588391D01*
X262982680Y-133588391D02*
X262982680Y-133445534D01*
X262982680Y-133445534D02*
X263030300Y-133350296D01*
X263030300Y-133350296D02*
X263077919Y-133302677D01*
X262982680Y-132397915D02*
X263982680Y-132397915D01*
X263030300Y-132397915D02*
X262982680Y-132493153D01*
X262982680Y-132493153D02*
X262982680Y-132683629D01*
X262982680Y-132683629D02*
X263030300Y-132778867D01*
X263030300Y-132778867D02*
X263077919Y-132826486D01*
X263077919Y-132826486D02*
X263173157Y-132874105D01*
X263173157Y-132874105D02*
X263458871Y-132874105D01*
X263458871Y-132874105D02*
X263554109Y-132826486D01*
X263554109Y-132826486D02*
X263601728Y-132778867D01*
X263601728Y-132778867D02*
X263649347Y-132683629D01*
X263649347Y-132683629D02*
X263649347Y-132493153D01*
X263649347Y-132493153D02*
X263601728Y-132397915D01*
X262982680Y-131921724D02*
X263649347Y-131921724D01*
X263982680Y-131921724D02*
X263935061Y-131969343D01*
X263935061Y-131969343D02*
X263887442Y-131921724D01*
X263887442Y-131921724D02*
X263935061Y-131874105D01*
X263935061Y-131874105D02*
X263982680Y-131921724D01*
X263982680Y-131921724D02*
X263887442Y-131921724D01*
X262982680Y-131302677D02*
X263030300Y-131397915D01*
X263030300Y-131397915D02*
X263077919Y-131445534D01*
X263077919Y-131445534D02*
X263173157Y-131493153D01*
X263173157Y-131493153D02*
X263458871Y-131493153D01*
X263458871Y-131493153D02*
X263554109Y-131445534D01*
X263554109Y-131445534D02*
X263601728Y-131397915D01*
X263601728Y-131397915D02*
X263649347Y-131302677D01*
X263649347Y-131302677D02*
X263649347Y-131159820D01*
X263649347Y-131159820D02*
X263601728Y-131064582D01*
X263601728Y-131064582D02*
X263554109Y-131016963D01*
X263554109Y-131016963D02*
X263458871Y-130969344D01*
X263458871Y-130969344D02*
X263173157Y-130969344D01*
X263173157Y-130969344D02*
X263077919Y-131016963D01*
X263077919Y-131016963D02*
X263030300Y-131064582D01*
X263030300Y-131064582D02*
X262982680Y-131159820D01*
X262982680Y-131159820D02*
X262982680Y-131302677D01*
X165814285Y-132734819D02*
X165814285Y-131734819D01*
X165814285Y-131734819D02*
X165576190Y-131734819D01*
X165576190Y-131734819D02*
X165433333Y-131782438D01*
X165433333Y-131782438D02*
X165338095Y-131877676D01*
X165338095Y-131877676D02*
X165290476Y-131972914D01*
X165290476Y-131972914D02*
X165242857Y-132163390D01*
X165242857Y-132163390D02*
X165242857Y-132306247D01*
X165242857Y-132306247D02*
X165290476Y-132496723D01*
X165290476Y-132496723D02*
X165338095Y-132591961D01*
X165338095Y-132591961D02*
X165433333Y-132687200D01*
X165433333Y-132687200D02*
X165576190Y-132734819D01*
X165576190Y-132734819D02*
X165814285Y-132734819D01*
X164290476Y-132734819D02*
X164861904Y-132734819D01*
X164576190Y-132734819D02*
X164576190Y-131734819D01*
X164576190Y-131734819D02*
X164671428Y-131877676D01*
X164671428Y-131877676D02*
X164766666Y-131972914D01*
X164766666Y-131972914D02*
X164861904Y-132020533D01*
X163957142Y-131734819D02*
X163338095Y-131734819D01*
X163338095Y-131734819D02*
X163671428Y-132115771D01*
X163671428Y-132115771D02*
X163528571Y-132115771D01*
X163528571Y-132115771D02*
X163433333Y-132163390D01*
X163433333Y-132163390D02*
X163385714Y-132211009D01*
X163385714Y-132211009D02*
X163338095Y-132306247D01*
X163338095Y-132306247D02*
X163338095Y-132544342D01*
X163338095Y-132544342D02*
X163385714Y-132639580D01*
X163385714Y-132639580D02*
X163433333Y-132687200D01*
X163433333Y-132687200D02*
X163528571Y-132734819D01*
X163528571Y-132734819D02*
X163814285Y-132734819D01*
X163814285Y-132734819D02*
X163909523Y-132687200D01*
X163909523Y-132687200D02*
X163957142Y-132639580D01*
X168671904Y-133054819D02*
X168671904Y-132054819D01*
X168100476Y-133054819D02*
X168529047Y-132483390D01*
X168100476Y-132054819D02*
X168671904Y-132626247D01*
D10*
X237138094Y-128552219D02*
X237138094Y-127552219D01*
X237138094Y-127552219D02*
X236899999Y-127552219D01*
X236899999Y-127552219D02*
X236757142Y-127599838D01*
X236757142Y-127599838D02*
X236661904Y-127695076D01*
X236661904Y-127695076D02*
X236614285Y-127790314D01*
X236614285Y-127790314D02*
X236566666Y-127980790D01*
X236566666Y-127980790D02*
X236566666Y-128123647D01*
X236566666Y-128123647D02*
X236614285Y-128314123D01*
X236614285Y-128314123D02*
X236661904Y-128409361D01*
X236661904Y-128409361D02*
X236757142Y-128504600D01*
X236757142Y-128504600D02*
X236899999Y-128552219D01*
X236899999Y-128552219D02*
X237138094Y-128552219D01*
X236185713Y-127647457D02*
X236138094Y-127599838D01*
X236138094Y-127599838D02*
X236042856Y-127552219D01*
X236042856Y-127552219D02*
X235804761Y-127552219D01*
X235804761Y-127552219D02*
X235709523Y-127599838D01*
X235709523Y-127599838D02*
X235661904Y-127647457D01*
X235661904Y-127647457D02*
X235614285Y-127742695D01*
X235614285Y-127742695D02*
X235614285Y-127837933D01*
X235614285Y-127837933D02*
X235661904Y-127980790D01*
X235661904Y-127980790D02*
X236233332Y-128552219D01*
X236233332Y-128552219D02*
X235614285Y-128552219D01*
D11*
X203538094Y-133134819D02*
X203538094Y-132134819D01*
X203538094Y-132134819D02*
X203299999Y-132134819D01*
X203299999Y-132134819D02*
X203157142Y-132182438D01*
X203157142Y-132182438D02*
X203061904Y-132277676D01*
X203061904Y-132277676D02*
X203014285Y-132372914D01*
X203014285Y-132372914D02*
X202966666Y-132563390D01*
X202966666Y-132563390D02*
X202966666Y-132706247D01*
X202966666Y-132706247D02*
X203014285Y-132896723D01*
X203014285Y-132896723D02*
X203061904Y-132991961D01*
X203061904Y-132991961D02*
X203157142Y-133087200D01*
X203157142Y-133087200D02*
X203299999Y-133134819D01*
X203299999Y-133134819D02*
X203538094Y-133134819D01*
X202490475Y-133134819D02*
X202299999Y-133134819D01*
X202299999Y-133134819D02*
X202204761Y-133087200D01*
X202204761Y-133087200D02*
X202157142Y-133039580D01*
X202157142Y-133039580D02*
X202061904Y-132896723D01*
X202061904Y-132896723D02*
X202014285Y-132706247D01*
X202014285Y-132706247D02*
X202014285Y-132325295D01*
X202014285Y-132325295D02*
X202061904Y-132230057D01*
X202061904Y-132230057D02*
X202109523Y-132182438D01*
X202109523Y-132182438D02*
X202204761Y-132134819D01*
X202204761Y-132134819D02*
X202395237Y-132134819D01*
X202395237Y-132134819D02*
X202490475Y-132182438D01*
X202490475Y-132182438D02*
X202538094Y-132230057D01*
X202538094Y-132230057D02*
X202585713Y-132325295D01*
X202585713Y-132325295D02*
X202585713Y-132563390D01*
X202585713Y-132563390D02*
X202538094Y-132658628D01*
X202538094Y-132658628D02*
X202490475Y-132706247D01*
X202490475Y-132706247D02*
X202395237Y-132753866D01*
X202395237Y-132753866D02*
X202204761Y-132753866D01*
X202204761Y-132753866D02*
X202109523Y-132706247D01*
X202109523Y-132706247D02*
X202061904Y-132658628D01*
X202061904Y-132658628D02*
X202014285Y-132563390D01*
X206871904Y-133454819D02*
X206871904Y-132454819D01*
X206300476Y-133454819D02*
X206729047Y-132883390D01*
X206300476Y-132454819D02*
X206871904Y-133026247D01*
D13*
%TO.C,D6*%
X218630000Y-115000000D02*
X219280000Y-115000000D01*
X222680000Y-113880000D02*
X222680000Y-116120000D01*
X222800000Y-113880000D02*
X222800000Y-116120000D01*
X222920000Y-113880000D02*
X222920000Y-116120000D01*
X224170000Y-115000000D02*
X223520000Y-115000000D01*
X223520000Y-113880000D02*
X219280000Y-113880000D01*
X219280000Y-116120000D01*
X223520000Y-116120000D01*
X223520000Y-113880000D01*
%TO.C,D10*%
X181030000Y-115600000D02*
X181680000Y-115600000D01*
X185080000Y-114480000D02*
X185080000Y-116720000D01*
X185200000Y-114480000D02*
X185200000Y-116720000D01*
X185320000Y-114480000D02*
X185320000Y-116720000D01*
X186570000Y-115600000D02*
X185920000Y-115600000D01*
X185920000Y-114480000D02*
X181680000Y-114480000D01*
X181680000Y-116720000D01*
X185920000Y-116720000D01*
X185920000Y-114480000D01*
%TO.C,D8*%
X200230000Y-116000000D02*
X200880000Y-116000000D01*
X204280000Y-114880000D02*
X204280000Y-117120000D01*
X204400000Y-114880000D02*
X204400000Y-117120000D01*
X204520000Y-114880000D02*
X204520000Y-117120000D01*
X205770000Y-116000000D02*
X205120000Y-116000000D01*
X205120000Y-114880000D02*
X200880000Y-114880000D01*
X200880000Y-117120000D01*
X205120000Y-117120000D01*
X205120000Y-114880000D01*
%TO.C,D12*%
X162030000Y-115600000D02*
X162680000Y-115600000D01*
X166080000Y-114480000D02*
X166080000Y-116720000D01*
X166200000Y-114480000D02*
X166200000Y-116720000D01*
X166320000Y-114480000D02*
X166320000Y-116720000D01*
X167570000Y-115600000D02*
X166920000Y-115600000D01*
X166920000Y-114480000D02*
X162680000Y-114480000D01*
X162680000Y-116720000D01*
X166920000Y-116720000D01*
X166920000Y-114480000D01*
%TO.C,D11*%
X181030000Y-134800000D02*
X181680000Y-134800000D01*
X185080000Y-133680000D02*
X185080000Y-135920000D01*
X185200000Y-133680000D02*
X185200000Y-135920000D01*
X185320000Y-133680000D02*
X185320000Y-135920000D01*
X186570000Y-134800000D02*
X185920000Y-134800000D01*
X185920000Y-133680000D02*
X181680000Y-133680000D01*
X181680000Y-135920000D01*
X185920000Y-135920000D01*
X185920000Y-133680000D01*
%TO.C,D7*%
X219030000Y-134800000D02*
X219680000Y-134800000D01*
X223080000Y-133680000D02*
X223080000Y-135920000D01*
X223200000Y-133680000D02*
X223200000Y-135920000D01*
X223320000Y-133680000D02*
X223320000Y-135920000D01*
X224570000Y-134800000D02*
X223920000Y-134800000D01*
X223920000Y-133680000D02*
X219680000Y-133680000D01*
X219680000Y-135920000D01*
X223920000Y-135920000D01*
X223920000Y-133680000D01*
D14*
%TO.C,U1*%
X251437500Y-142631250D02*
X251437500Y-128831250D01*
X253437500Y-126831250D02*
X270437500Y-126831250D01*
X266508230Y-131231250D02*
X266508230Y-140231250D01*
X266508230Y-140231250D02*
X273861530Y-140231250D01*
X270437500Y-144631250D02*
X253437500Y-144631250D01*
X272436590Y-128831250D02*
X272436590Y-142631250D01*
X273861530Y-131231250D02*
X266508230Y-131231250D01*
X273861530Y-140231250D02*
X273861530Y-131231250D01*
D13*
X251437500Y-128831250D02*
G75*
G02*
X253437500Y-126831250I2000000J0D01*
G01*
X253437500Y-144631250D02*
G75*
G02*
X251437500Y-142631250I44857J2044857D01*
G01*
X270437500Y-126831250D02*
G75*
G02*
X272437500Y-128831250I-44610J-2044610D01*
G01*
X272437500Y-142631250D02*
G75*
G02*
X270437500Y-144631250I-2044612J44612D01*
G01*
D15*
X270864500Y-146731250D02*
G75*
G02*
X270610500Y-146731250I-127000J0D01*
G01*
X270610500Y-146731250D02*
G75*
G02*
X270864500Y-146731250I127000J0D01*
G01*
D16*
X270547973Y-144615917D02*
X270499205Y-144618965D01*
X270596994Y-144611853D01*
X270547973Y-144615917D01*
X253026545Y-126889002D02*
X253074550Y-126879097D01*
X253122810Y-126870206D01*
X253171325Y-126862586D01*
X253220093Y-126855982D01*
X253268861Y-126850649D01*
X253317882Y-126846585D01*
X253366650Y-126843537D01*
X253415926Y-126841758D01*
X253026545Y-126889002D01*
D13*
%TO.C,D13*%
X161830000Y-134400000D02*
X162480000Y-134400000D01*
X165880000Y-133280000D02*
X165880000Y-135520000D01*
X166000000Y-133280000D02*
X166000000Y-135520000D01*
X166120000Y-133280000D02*
X166120000Y-135520000D01*
X167370000Y-134400000D02*
X166720000Y-134400000D01*
X166720000Y-133280000D02*
X162480000Y-133280000D01*
X162480000Y-135520000D01*
X166720000Y-135520000D01*
X166720000Y-133280000D01*
%TO.C,D9*%
X200030000Y-134800000D02*
X200680000Y-134800000D01*
X204080000Y-133680000D02*
X204080000Y-135920000D01*
X204200000Y-133680000D02*
X204200000Y-135920000D01*
X204320000Y-133680000D02*
X204320000Y-135920000D01*
X205570000Y-134800000D02*
X204920000Y-134800000D01*
X204920000Y-133680000D02*
X200680000Y-133680000D01*
X200680000Y-135920000D01*
X204920000Y-135920000D01*
X204920000Y-133680000D01*
%TD*%
M02*
