%TF.GenerationSoftware,KiCad,Pcbnew,9.0.6*%
%TF.CreationDate,2026-08-14T19:33:17+02:00*%
%TF.ProjectId,XacPAD2kicad,58616350-4144-4326-9b69-6361642e6b69,rev?*%
%TF.SameCoordinates,Original*%
%TF.FileFunction,Legend,Top*%
%TF.FilePolarity,Positive*%
%FSLAX46Y46*%
G04 Gerber Fmt 4.6, Leading zero omitted, Abs format (unit mm)*
G04 Created by KiCad (PCBNEW 9.0.6) date 2026-08-14 19:33:17*
%MOMM*%
%LPD*%
G01*
G04 APERTURE LIST*
%ADD10C,0.400000*%
%ADD11C,0.150000*%
%ADD12C,0.040000*%
%ADD13C,0.120000*%
%ADD14C,0.100000*%
G04 APERTURE END LIST*
D10*
G36*
X236516454Y-147905124D02*
G01*
X236454164Y-147934438D01*
X236072680Y-147934438D01*
X236004859Y-147898266D01*
X235977247Y-147824635D01*
X235989472Y-147726833D01*
X236053946Y-147623676D01*
X236162626Y-147572533D01*
X236558028Y-147572533D01*
X236516454Y-147905124D01*
G37*
G36*
X243954625Y-146401194D02*
G01*
X244062481Y-146524458D01*
X244112859Y-146658800D01*
X244154458Y-146991579D01*
X244124765Y-147229120D01*
X243997215Y-147569252D01*
X243904034Y-147718340D01*
X243742859Y-147861609D01*
X243515270Y-147934438D01*
X243296857Y-147934438D01*
X243496857Y-146334438D01*
X243762702Y-146334438D01*
X243954625Y-146401194D01*
G37*
G36*
X242038625Y-147363009D02*
G01*
X241643878Y-147363009D01*
X241915266Y-146770888D01*
X242038625Y-147363009D01*
G37*
G36*
X240420076Y-146388922D02*
G01*
X240455339Y-146429222D01*
X240496684Y-146539476D01*
X240472554Y-146732519D01*
X240392129Y-146861198D01*
X240328057Y-146918151D01*
X240192260Y-146982057D01*
X239701618Y-146982057D01*
X239782571Y-146334438D01*
X240317918Y-146334438D01*
X240420076Y-146388922D01*
G37*
G36*
X248265814Y-148556660D02*
G01*
X233315393Y-148556660D01*
X233315393Y-148118337D01*
X233537615Y-148118337D01*
X233546628Y-148195851D01*
X233584619Y-148264016D01*
X233645803Y-148312453D01*
X233720865Y-148333789D01*
X233798379Y-148324776D01*
X233866544Y-148286785D01*
X233893775Y-148258579D01*
X234497210Y-147496344D01*
X234894441Y-148229694D01*
X234916403Y-148262172D01*
X234977000Y-148311343D01*
X235051800Y-148333581D01*
X235129417Y-148325501D01*
X235198033Y-148288334D01*
X235247204Y-148227737D01*
X235269442Y-148152936D01*
X235261362Y-148075320D01*
X235246157Y-148039181D01*
X235150785Y-147863109D01*
X235573198Y-147863109D01*
X235575622Y-147871925D01*
X235575312Y-147881065D01*
X235585414Y-147918948D01*
X235656843Y-148109425D01*
X235666286Y-148128633D01*
X235667811Y-148133641D01*
X235670144Y-148136478D01*
X235674142Y-148144610D01*
X235696539Y-148168580D01*
X235717372Y-148193918D01*
X235724910Y-148198945D01*
X235727418Y-148201629D01*
X235732181Y-148203794D01*
X235749991Y-148215671D01*
X235928563Y-148310909D01*
X235964799Y-148325879D01*
X235974580Y-148326833D01*
X235983662Y-148330595D01*
X236022680Y-148334438D01*
X236498871Y-148334438D01*
X236537889Y-148330595D01*
X236542310Y-148328763D01*
X236547090Y-148328538D01*
X236584030Y-148315402D01*
X236598654Y-148308519D01*
X236626300Y-148324241D01*
X236703733Y-148333920D01*
X236778977Y-148313230D01*
X236840575Y-148265320D01*
X236879150Y-148197485D01*
X236887803Y-148159245D01*
X236936725Y-147767871D01*
X237394627Y-147767871D01*
X237397051Y-147776687D01*
X237396741Y-147785827D01*
X237406843Y-147823710D01*
X237478272Y-148014186D01*
X237490911Y-148039893D01*
X237492221Y-148043766D01*
X237494124Y-148046428D01*
X237495571Y-148049371D01*
X237498367Y-148052364D01*
X237515022Y-148075661D01*
X237598355Y-148170900D01*
X237619623Y-148190865D01*
X237622134Y-148193919D01*
X237624695Y-148195627D01*
X237626940Y-148197734D01*
X237630481Y-148199485D01*
X237654754Y-148215671D01*
X237833325Y-148310909D01*
X237869561Y-148325879D01*
X237879343Y-148326833D01*
X237888425Y-148330595D01*
X237927443Y-148334438D01*
X238308395Y-148334438D01*
X238347413Y-148330595D01*
X238351834Y-148328763D01*
X238356614Y-148328538D01*
X238393554Y-148315402D01*
X238595935Y-148220164D01*
X238629603Y-148200073D01*
X238676234Y-148148824D01*
X239156532Y-148148824D01*
X239177222Y-148224068D01*
X239225132Y-148285666D01*
X239292967Y-148324241D01*
X239370400Y-148333920D01*
X239445644Y-148313230D01*
X239507242Y-148265320D01*
X239545817Y-148197485D01*
X239552905Y-148166161D01*
X240872832Y-148166161D01*
X240900003Y-148239314D01*
X240953100Y-148296500D01*
X241024040Y-148329014D01*
X241102023Y-148331906D01*
X241175176Y-148304735D01*
X241232362Y-148251638D01*
X241252113Y-148217769D01*
X241460545Y-147763009D01*
X242121958Y-147763009D01*
X242207837Y-148175229D01*
X242219557Y-148212643D01*
X242263497Y-148277133D01*
X242328771Y-148319899D01*
X242405442Y-148334430D01*
X242481838Y-148318514D01*
X242546328Y-148274575D01*
X242589094Y-148209300D01*
X242600556Y-148148824D01*
X242870818Y-148148824D01*
X242874143Y-148160916D01*
X242874143Y-148173456D01*
X242884400Y-148198219D01*
X242891508Y-148224068D01*
X242899207Y-148233967D01*
X242904006Y-148245552D01*
X242922960Y-148264506D01*
X242939418Y-148285666D01*
X242950318Y-148291864D01*
X242959186Y-148300732D01*
X242983950Y-148310989D01*
X243007253Y-148324241D01*
X243019697Y-148325796D01*
X243031282Y-148330595D01*
X243070300Y-148334438D01*
X243546491Y-148334438D01*
X243563916Y-148332721D01*
X243569113Y-148333154D01*
X243577235Y-148331409D01*
X243585509Y-148330595D01*
X243590329Y-148328598D01*
X243607446Y-148324923D01*
X243905065Y-148229685D01*
X243941056Y-148214133D01*
X243942939Y-148212538D01*
X243945268Y-148211731D01*
X243976983Y-148188681D01*
X244007145Y-148161870D01*
X246205524Y-148161870D01*
X246207477Y-148167499D01*
X246207477Y-148173456D01*
X246220201Y-148204175D01*
X246231102Y-148235595D01*
X246235060Y-148240047D01*
X246237340Y-148245552D01*
X246260856Y-148269068D01*
X246282947Y-148293920D01*
X246288306Y-148296518D01*
X246292520Y-148300732D01*
X246323248Y-148313460D01*
X246353165Y-148327965D01*
X246359111Y-148328314D01*
X246364616Y-148330595D01*
X246403634Y-148334438D01*
X247641729Y-148334438D01*
X247680747Y-148330595D01*
X247752843Y-148300732D01*
X247808023Y-148245552D01*
X247837886Y-148173456D01*
X247837886Y-148095420D01*
X247808023Y-148023324D01*
X247752843Y-147968144D01*
X247680747Y-147938281D01*
X247641729Y-147934438D01*
X246929674Y-147934438D01*
X247822221Y-147141062D01*
X247848830Y-147112267D01*
X247849792Y-147110281D01*
X247851410Y-147108780D01*
X247871161Y-147074911D01*
X248002114Y-146789197D01*
X248007553Y-146773396D01*
X248010104Y-146768912D01*
X248012033Y-146760385D01*
X248014877Y-146752126D01*
X248015068Y-146746974D01*
X248018757Y-146730672D01*
X248042566Y-146540197D01*
X248043592Y-146501003D01*
X248041167Y-146492186D01*
X248041478Y-146483049D01*
X248031376Y-146445165D01*
X247959948Y-146254690D01*
X247947307Y-146228978D01*
X247945998Y-146225107D01*
X247944096Y-146222447D01*
X247942650Y-146219505D01*
X247939853Y-146216511D01*
X247923197Y-146193213D01*
X247839863Y-146097974D01*
X247818593Y-146078008D01*
X247816085Y-146074958D01*
X247813523Y-146073250D01*
X247811277Y-146071141D01*
X247807732Y-146069388D01*
X247783466Y-146053206D01*
X247604895Y-145957967D01*
X247568659Y-145942997D01*
X247558876Y-145942042D01*
X247549795Y-145938281D01*
X247510777Y-145934438D01*
X247034586Y-145934438D01*
X246995568Y-145938281D01*
X246991146Y-145940112D01*
X246986367Y-145940338D01*
X246949427Y-145953474D01*
X246747046Y-146048712D01*
X246735511Y-146055595D01*
X246731047Y-146057144D01*
X246722471Y-146063376D01*
X246713378Y-146068803D01*
X246710201Y-146072294D01*
X246699332Y-146080194D01*
X246592190Y-146175433D01*
X246565581Y-146204227D01*
X246531535Y-146274445D01*
X246526953Y-146352347D01*
X246552532Y-146426072D01*
X246604376Y-146484396D01*
X246674594Y-146518442D01*
X246752496Y-146523024D01*
X246826221Y-146497445D01*
X246857936Y-146474395D01*
X246943494Y-146398343D01*
X247079293Y-146334438D01*
X247460776Y-146334438D01*
X247562934Y-146388922D01*
X247598197Y-146429222D01*
X247639542Y-146539476D01*
X247625662Y-146650515D01*
X247525052Y-146870029D01*
X246270761Y-147984956D01*
X246244152Y-148013751D01*
X246241553Y-148019110D01*
X246237340Y-148023324D01*
X246224611Y-148054052D01*
X246210107Y-148083969D01*
X246209757Y-148089915D01*
X246207477Y-148095420D01*
X246207477Y-148128673D01*
X246205524Y-148161870D01*
X244007145Y-148161870D01*
X244191269Y-147998204D01*
X244200245Y-147988490D01*
X244204056Y-147985773D01*
X244210595Y-147977289D01*
X244217878Y-147969410D01*
X244219923Y-147965191D01*
X244227994Y-147954723D01*
X244347043Y-147764247D01*
X244347252Y-147763824D01*
X244347410Y-147763656D01*
X244355888Y-147746411D01*
X244364463Y-147729123D01*
X244364501Y-147728894D01*
X244364709Y-147728472D01*
X244507566Y-147347520D01*
X244508930Y-147342404D01*
X244510103Y-147340342D01*
X244513593Y-147324916D01*
X244517668Y-147309637D01*
X244517587Y-147307265D01*
X244518756Y-147302102D01*
X244554471Y-147016387D01*
X244554664Y-147008993D01*
X244555497Y-147005966D01*
X244555120Y-146991580D01*
X244555497Y-146977194D01*
X244554664Y-146974166D01*
X244554471Y-146966773D01*
X244506851Y-146585821D01*
X244505682Y-146580657D01*
X244505763Y-146578287D01*
X244501689Y-146563010D01*
X244498198Y-146547581D01*
X244497025Y-146545518D01*
X244495661Y-146540403D01*
X244424233Y-146349928D01*
X244411594Y-146324220D01*
X244410284Y-146320346D01*
X244408380Y-146317683D01*
X244406935Y-146314743D01*
X244404139Y-146311750D01*
X244387482Y-146288451D01*
X244220815Y-146097975D01*
X244192229Y-146071141D01*
X244180973Y-146065574D01*
X244171594Y-146057224D01*
X244136004Y-146040777D01*
X243862195Y-145945539D01*
X243840270Y-145940253D01*
X243835509Y-145938281D01*
X243829727Y-145937711D01*
X243824080Y-145936350D01*
X243818934Y-145936648D01*
X243796491Y-145934438D01*
X243320300Y-145934438D01*
X243309931Y-145935459D01*
X243305914Y-145934957D01*
X243300826Y-145936356D01*
X243281282Y-145938281D01*
X243256510Y-145948541D01*
X243230670Y-145955647D01*
X243220773Y-145963344D01*
X243209186Y-145968144D01*
X243190230Y-145987099D01*
X243169072Y-146003556D01*
X243162873Y-146014456D01*
X243154006Y-146023324D01*
X243143748Y-146048088D01*
X243130497Y-146071391D01*
X243126163Y-146090542D01*
X243124143Y-146095420D01*
X243124143Y-146099471D01*
X243121844Y-146109631D01*
X242871844Y-148109631D01*
X242870818Y-148148824D01*
X242600556Y-148148824D01*
X242603625Y-148132629D01*
X242599429Y-148093648D01*
X242182763Y-146093647D01*
X242171043Y-146056233D01*
X242162528Y-146043737D01*
X242157264Y-146029562D01*
X242140759Y-146011786D01*
X242127103Y-145991743D01*
X242114455Y-145983456D01*
X242104167Y-145972376D01*
X242082119Y-145962271D01*
X242061829Y-145948977D01*
X242046970Y-145946160D01*
X242033227Y-145939862D01*
X242008992Y-145938963D01*
X241985158Y-145934446D01*
X241970353Y-145937530D01*
X241955244Y-145936970D01*
X241932507Y-145945414D01*
X241908762Y-145950362D01*
X241896266Y-145958875D01*
X241882091Y-145964141D01*
X241864316Y-145980644D01*
X241844272Y-145994302D01*
X241835984Y-146006951D01*
X241824905Y-146017239D01*
X241805154Y-146051107D01*
X240888487Y-148051107D01*
X240875724Y-148088178D01*
X240872832Y-148166161D01*
X239552905Y-148166161D01*
X239554470Y-148159245D01*
X239651618Y-147382057D01*
X240236967Y-147382057D01*
X240275985Y-147378214D01*
X240280406Y-147376382D01*
X240285186Y-147376157D01*
X240322126Y-147363021D01*
X240524507Y-147267783D01*
X240536043Y-147260898D01*
X240540507Y-147259350D01*
X240549079Y-147253119D01*
X240558175Y-147247692D01*
X240561352Y-147244199D01*
X240572222Y-147236300D01*
X240679364Y-147141061D01*
X240688339Y-147131348D01*
X240692151Y-147128630D01*
X240698694Y-147120142D01*
X240705973Y-147112266D01*
X240708017Y-147108050D01*
X240716089Y-147097580D01*
X240835138Y-146907104D01*
X240852558Y-146871980D01*
X240853254Y-146867819D01*
X240855341Y-146864151D01*
X240863994Y-146825911D01*
X240899708Y-146540197D01*
X240900734Y-146501004D01*
X240898309Y-146492187D01*
X240898620Y-146483049D01*
X240888518Y-146445165D01*
X240817090Y-146254690D01*
X240804449Y-146228978D01*
X240803140Y-146225107D01*
X240801238Y-146222447D01*
X240799792Y-146219505D01*
X240796995Y-146216511D01*
X240780339Y-146193213D01*
X240697005Y-146097974D01*
X240675735Y-146078008D01*
X240673227Y-146074958D01*
X240670665Y-146073250D01*
X240668419Y-146071141D01*
X240664874Y-146069388D01*
X240640608Y-146053206D01*
X240462037Y-145957967D01*
X240425801Y-145942997D01*
X240416018Y-145942042D01*
X240406937Y-145938281D01*
X240367919Y-145934438D01*
X239606014Y-145934438D01*
X239595645Y-145935459D01*
X239591628Y-145934957D01*
X239586540Y-145936356D01*
X239566996Y-145938281D01*
X239542224Y-145948541D01*
X239516384Y-145955647D01*
X239506487Y-145963344D01*
X239494900Y-145968144D01*
X239475944Y-145987099D01*
X239454786Y-146003556D01*
X239448587Y-146014456D01*
X239439720Y-146023324D01*
X239429462Y-146048088D01*
X239416211Y-146071391D01*
X239411877Y-146090542D01*
X239409857Y-146095420D01*
X239409857Y-146099471D01*
X239407558Y-146109631D01*
X239157558Y-148109631D01*
X239156532Y-148148824D01*
X238676234Y-148148824D01*
X238682121Y-148142354D01*
X238708554Y-148068931D01*
X238704876Y-147990981D01*
X238671649Y-147920373D01*
X238613930Y-147867855D01*
X238540506Y-147841422D01*
X238462557Y-147845100D01*
X238425617Y-147858236D01*
X238263688Y-147934438D01*
X237977443Y-147934438D01*
X237875284Y-147879953D01*
X237840023Y-147839655D01*
X237798676Y-147729397D01*
X237858521Y-147250641D01*
X237938946Y-147121961D01*
X238003015Y-147065010D01*
X238138816Y-147001104D01*
X238425061Y-147001104D01*
X238559516Y-147072813D01*
X238595752Y-147087783D01*
X238673419Y-147095361D01*
X238748074Y-147072640D01*
X238808352Y-147023079D01*
X238845074Y-146954224D01*
X238852652Y-146876557D01*
X238829931Y-146801901D01*
X238780370Y-146741624D01*
X238747751Y-146719872D01*
X238569180Y-146624633D01*
X238532944Y-146609663D01*
X238523161Y-146608708D01*
X238514080Y-146604947D01*
X238475062Y-146601104D01*
X238094109Y-146601104D01*
X238055091Y-146604947D01*
X238050669Y-146606778D01*
X238045890Y-146607004D01*
X238008950Y-146620140D01*
X237806569Y-146715378D01*
X237795033Y-146722261D01*
X237790571Y-146723810D01*
X237781998Y-146730040D01*
X237772901Y-146735469D01*
X237769723Y-146738961D01*
X237758855Y-146746860D01*
X237651712Y-146842098D01*
X237642736Y-146851810D01*
X237638923Y-146854530D01*
X237632378Y-146863018D01*
X237625103Y-146870892D01*
X237623058Y-146875108D01*
X237614985Y-146885581D01*
X237495938Y-147076058D01*
X237478517Y-147111182D01*
X237477820Y-147115342D01*
X237475735Y-147119010D01*
X237467082Y-147157250D01*
X237395653Y-147728678D01*
X237394627Y-147767871D01*
X236936725Y-147767871D01*
X237018755Y-147111626D01*
X237019781Y-147072432D01*
X237017356Y-147063615D01*
X237017667Y-147054478D01*
X237007565Y-147016595D01*
X236936137Y-146826118D01*
X236926691Y-146806906D01*
X236925168Y-146801900D01*
X236922835Y-146799063D01*
X236918839Y-146790934D01*
X236896439Y-146766960D01*
X236875607Y-146741623D01*
X236868071Y-146736598D01*
X236865563Y-146733913D01*
X236860795Y-146731746D01*
X236842988Y-146719871D01*
X236664416Y-146624633D01*
X236628180Y-146609663D01*
X236618398Y-146608708D01*
X236609317Y-146604947D01*
X236570299Y-146601104D01*
X236189347Y-146601104D01*
X236150329Y-146604947D01*
X236145907Y-146606778D01*
X236141128Y-146607004D01*
X236104188Y-146620140D01*
X235901807Y-146715378D01*
X235868139Y-146735469D01*
X235815621Y-146793188D01*
X235789188Y-146866611D01*
X235792866Y-146944561D01*
X235826093Y-147015169D01*
X235883812Y-147067687D01*
X235957235Y-147094120D01*
X236035185Y-147090442D01*
X236072125Y-147077306D01*
X236234054Y-147001104D01*
X236520299Y-147001104D01*
X236588120Y-147037275D01*
X236615731Y-147110904D01*
X236611692Y-147143219D01*
X236549402Y-147172533D01*
X236117919Y-147172533D01*
X236078901Y-147176376D01*
X236074479Y-147178207D01*
X236069700Y-147178433D01*
X236032760Y-147191569D01*
X235830379Y-147286807D01*
X235796711Y-147306898D01*
X235784569Y-147320242D01*
X235769877Y-147330720D01*
X235745939Y-147361771D01*
X235626891Y-147552247D01*
X235609470Y-147587371D01*
X235608773Y-147591530D01*
X235606687Y-147595200D01*
X235598034Y-147633440D01*
X235574224Y-147823916D01*
X235573198Y-147863109D01*
X235150785Y-147863109D01*
X234767313Y-147155161D01*
X235477108Y-146258579D01*
X235498314Y-146225601D01*
X235519650Y-146150539D01*
X235510637Y-146073025D01*
X235472646Y-146004861D01*
X235411462Y-145956423D01*
X235336400Y-145935087D01*
X235258886Y-145944100D01*
X235190721Y-145982091D01*
X235163490Y-146010298D01*
X234560055Y-146772531D01*
X234162824Y-146039181D01*
X234140862Y-146006704D01*
X234080265Y-145957533D01*
X234005465Y-145935295D01*
X233927848Y-145943375D01*
X233859232Y-145980542D01*
X233810061Y-146041139D01*
X233787823Y-146115939D01*
X233795903Y-146193556D01*
X233811108Y-146229695D01*
X234289951Y-147113714D01*
X233580157Y-148010297D01*
X233558951Y-148043275D01*
X233537615Y-148118337D01*
X233315393Y-148118337D01*
X233315393Y-145712216D01*
X248265814Y-145712216D01*
X248265814Y-148556660D01*
G37*
D11*
X233936069Y-118996190D02*
X233936069Y-118805714D01*
X233936069Y-118805714D02*
X233983688Y-118710476D01*
X233983688Y-118710476D02*
X234078926Y-118615238D01*
X234078926Y-118615238D02*
X234269402Y-118567619D01*
X234269402Y-118567619D02*
X234602735Y-118567619D01*
X234602735Y-118567619D02*
X234793211Y-118615238D01*
X234793211Y-118615238D02*
X234888450Y-118710476D01*
X234888450Y-118710476D02*
X234936069Y-118805714D01*
X234936069Y-118805714D02*
X234936069Y-118996190D01*
X234936069Y-118996190D02*
X234888450Y-119091428D01*
X234888450Y-119091428D02*
X234793211Y-119186666D01*
X234793211Y-119186666D02*
X234602735Y-119234285D01*
X234602735Y-119234285D02*
X234269402Y-119234285D01*
X234269402Y-119234285D02*
X234078926Y-119186666D01*
X234078926Y-119186666D02*
X233983688Y-119091428D01*
X233983688Y-119091428D02*
X233936069Y-118996190D01*
X234936069Y-117662857D02*
X234936069Y-118139047D01*
X234936069Y-118139047D02*
X233936069Y-118139047D01*
X234936069Y-116805714D02*
X234936069Y-117377142D01*
X234936069Y-117091428D02*
X233936069Y-117091428D01*
X233936069Y-117091428D02*
X234078926Y-117186666D01*
X234078926Y-117186666D02*
X234174164Y-117281904D01*
X234174164Y-117281904D02*
X234221783Y-117377142D01*
X247652678Y-117564819D02*
X247843154Y-117564819D01*
X247843154Y-117564819D02*
X247938392Y-117612438D01*
X247938392Y-117612438D02*
X248033630Y-117707676D01*
X248033630Y-117707676D02*
X248081249Y-117898152D01*
X248081249Y-117898152D02*
X248081249Y-118231485D01*
X248081249Y-118231485D02*
X248033630Y-118421961D01*
X248033630Y-118421961D02*
X247938392Y-118517200D01*
X247938392Y-118517200D02*
X247843154Y-118564819D01*
X247843154Y-118564819D02*
X247652678Y-118564819D01*
X247652678Y-118564819D02*
X247557440Y-118517200D01*
X247557440Y-118517200D02*
X247462202Y-118421961D01*
X247462202Y-118421961D02*
X247414583Y-118231485D01*
X247414583Y-118231485D02*
X247414583Y-117898152D01*
X247414583Y-117898152D02*
X247462202Y-117707676D01*
X247462202Y-117707676D02*
X247557440Y-117612438D01*
X247557440Y-117612438D02*
X247652678Y-117564819D01*
X248986011Y-118564819D02*
X248509821Y-118564819D01*
X248509821Y-118564819D02*
X248509821Y-117564819D01*
X249319345Y-118041009D02*
X249652678Y-118041009D01*
X249795535Y-118564819D02*
X249319345Y-118564819D01*
X249319345Y-118564819D02*
X249319345Y-117564819D01*
X249319345Y-117564819D02*
X249795535Y-117564819D01*
X250224107Y-118564819D02*
X250224107Y-117564819D01*
X250224107Y-117564819D02*
X250462202Y-117564819D01*
X250462202Y-117564819D02*
X250605059Y-117612438D01*
X250605059Y-117612438D02*
X250700297Y-117707676D01*
X250700297Y-117707676D02*
X250747916Y-117802914D01*
X250747916Y-117802914D02*
X250795535Y-117993390D01*
X250795535Y-117993390D02*
X250795535Y-118136247D01*
X250795535Y-118136247D02*
X250747916Y-118326723D01*
X250747916Y-118326723D02*
X250700297Y-118421961D01*
X250700297Y-118421961D02*
X250605059Y-118517200D01*
X250605059Y-118517200D02*
X250462202Y-118564819D01*
X250462202Y-118564819D02*
X250224107Y-118564819D01*
X251986012Y-118564819D02*
X251986012Y-117564819D01*
X251986012Y-117564819D02*
X252366964Y-117564819D01*
X252366964Y-117564819D02*
X252462202Y-117612438D01*
X252462202Y-117612438D02*
X252509821Y-117660057D01*
X252509821Y-117660057D02*
X252557440Y-117755295D01*
X252557440Y-117755295D02*
X252557440Y-117898152D01*
X252557440Y-117898152D02*
X252509821Y-117993390D01*
X252509821Y-117993390D02*
X252462202Y-118041009D01*
X252462202Y-118041009D02*
X252366964Y-118088628D01*
X252366964Y-118088628D02*
X251986012Y-118088628D01*
X253414583Y-118564819D02*
X253414583Y-118041009D01*
X253414583Y-118041009D02*
X253366964Y-117945771D01*
X253366964Y-117945771D02*
X253271726Y-117898152D01*
X253271726Y-117898152D02*
X253081250Y-117898152D01*
X253081250Y-117898152D02*
X252986012Y-117945771D01*
X253414583Y-118517200D02*
X253319345Y-118564819D01*
X253319345Y-118564819D02*
X253081250Y-118564819D01*
X253081250Y-118564819D02*
X252986012Y-118517200D01*
X252986012Y-118517200D02*
X252938393Y-118421961D01*
X252938393Y-118421961D02*
X252938393Y-118326723D01*
X252938393Y-118326723D02*
X252986012Y-118231485D01*
X252986012Y-118231485D02*
X253081250Y-118183866D01*
X253081250Y-118183866D02*
X253319345Y-118183866D01*
X253319345Y-118183866D02*
X253414583Y-118136247D01*
X253890774Y-117898152D02*
X253890774Y-118564819D01*
X253890774Y-117993390D02*
X253938393Y-117945771D01*
X253938393Y-117945771D02*
X254033631Y-117898152D01*
X254033631Y-117898152D02*
X254176488Y-117898152D01*
X254176488Y-117898152D02*
X254271726Y-117945771D01*
X254271726Y-117945771D02*
X254319345Y-118041009D01*
X254319345Y-118041009D02*
X254319345Y-118564819D01*
X255176488Y-118517200D02*
X255081250Y-118564819D01*
X255081250Y-118564819D02*
X254890774Y-118564819D01*
X254890774Y-118564819D02*
X254795536Y-118517200D01*
X254795536Y-118517200D02*
X254747917Y-118421961D01*
X254747917Y-118421961D02*
X254747917Y-118041009D01*
X254747917Y-118041009D02*
X254795536Y-117945771D01*
X254795536Y-117945771D02*
X254890774Y-117898152D01*
X254890774Y-117898152D02*
X255081250Y-117898152D01*
X255081250Y-117898152D02*
X255176488Y-117945771D01*
X255176488Y-117945771D02*
X255224107Y-118041009D01*
X255224107Y-118041009D02*
X255224107Y-118136247D01*
X255224107Y-118136247D02*
X254747917Y-118231485D01*
X255795536Y-118564819D02*
X255700298Y-118517200D01*
X255700298Y-118517200D02*
X255652679Y-118421961D01*
X255652679Y-118421961D02*
X255652679Y-117564819D01*
X266670414Y-117839999D02*
X267420414Y-117589999D01*
X267420414Y-117589999D02*
X266670414Y-117339999D01*
X267348985Y-116661428D02*
X267384700Y-116697142D01*
X267384700Y-116697142D02*
X267420414Y-116804285D01*
X267420414Y-116804285D02*
X267420414Y-116875713D01*
X267420414Y-116875713D02*
X267384700Y-116982856D01*
X267384700Y-116982856D02*
X267313271Y-117054285D01*
X267313271Y-117054285D02*
X267241842Y-117089999D01*
X267241842Y-117089999D02*
X267098985Y-117125713D01*
X267098985Y-117125713D02*
X266991842Y-117125713D01*
X266991842Y-117125713D02*
X266848985Y-117089999D01*
X266848985Y-117089999D02*
X266777557Y-117054285D01*
X266777557Y-117054285D02*
X266706128Y-116982856D01*
X266706128Y-116982856D02*
X266670414Y-116875713D01*
X266670414Y-116875713D02*
X266670414Y-116804285D01*
X266670414Y-116804285D02*
X266706128Y-116697142D01*
X266706128Y-116697142D02*
X266741842Y-116661428D01*
X267348985Y-115911428D02*
X267384700Y-115947142D01*
X267384700Y-115947142D02*
X267420414Y-116054285D01*
X267420414Y-116054285D02*
X267420414Y-116125713D01*
X267420414Y-116125713D02*
X267384700Y-116232856D01*
X267384700Y-116232856D02*
X267313271Y-116304285D01*
X267313271Y-116304285D02*
X267241842Y-116339999D01*
X267241842Y-116339999D02*
X267098985Y-116375713D01*
X267098985Y-116375713D02*
X266991842Y-116375713D01*
X266991842Y-116375713D02*
X266848985Y-116339999D01*
X266848985Y-116339999D02*
X266777557Y-116304285D01*
X266777557Y-116304285D02*
X266706128Y-116232856D01*
X266706128Y-116232856D02*
X266670414Y-116125713D01*
X266670414Y-116125713D02*
X266670414Y-116054285D01*
X266670414Y-116054285D02*
X266706128Y-115947142D01*
X266706128Y-115947142D02*
X266741842Y-115911428D01*
X267384700Y-122830713D02*
X267420414Y-122723571D01*
X267420414Y-122723571D02*
X267420414Y-122544999D01*
X267420414Y-122544999D02*
X267384700Y-122473571D01*
X267384700Y-122473571D02*
X267348985Y-122437856D01*
X267348985Y-122437856D02*
X267277557Y-122402142D01*
X267277557Y-122402142D02*
X267206128Y-122402142D01*
X267206128Y-122402142D02*
X267134700Y-122437856D01*
X267134700Y-122437856D02*
X267098985Y-122473571D01*
X267098985Y-122473571D02*
X267063271Y-122544999D01*
X267063271Y-122544999D02*
X267027557Y-122687856D01*
X267027557Y-122687856D02*
X266991842Y-122759285D01*
X266991842Y-122759285D02*
X266956128Y-122794999D01*
X266956128Y-122794999D02*
X266884700Y-122830713D01*
X266884700Y-122830713D02*
X266813271Y-122830713D01*
X266813271Y-122830713D02*
X266741842Y-122794999D01*
X266741842Y-122794999D02*
X266706128Y-122759285D01*
X266706128Y-122759285D02*
X266670414Y-122687856D01*
X266670414Y-122687856D02*
X266670414Y-122509285D01*
X266670414Y-122509285D02*
X266706128Y-122402142D01*
X267420414Y-122080713D02*
X266670414Y-122080713D01*
X266670414Y-122080713D02*
X266670414Y-121902142D01*
X266670414Y-121902142D02*
X266706128Y-121794999D01*
X266706128Y-121794999D02*
X266777557Y-121723570D01*
X266777557Y-121723570D02*
X266848985Y-121687856D01*
X266848985Y-121687856D02*
X266991842Y-121652142D01*
X266991842Y-121652142D02*
X267098985Y-121652142D01*
X267098985Y-121652142D02*
X267241842Y-121687856D01*
X267241842Y-121687856D02*
X267313271Y-121723570D01*
X267313271Y-121723570D02*
X267384700Y-121794999D01*
X267384700Y-121794999D02*
X267420414Y-121902142D01*
X267420414Y-121902142D02*
X267420414Y-122080713D01*
X267206128Y-121366427D02*
X267206128Y-121009285D01*
X267420414Y-121437856D02*
X266670414Y-121187856D01*
X266670414Y-121187856D02*
X267420414Y-120937856D01*
X266706128Y-114871428D02*
X266670414Y-114942857D01*
X266670414Y-114942857D02*
X266670414Y-115049999D01*
X266670414Y-115049999D02*
X266706128Y-115157142D01*
X266706128Y-115157142D02*
X266777557Y-115228571D01*
X266777557Y-115228571D02*
X266848985Y-115264285D01*
X266848985Y-115264285D02*
X266991842Y-115299999D01*
X266991842Y-115299999D02*
X267098985Y-115299999D01*
X267098985Y-115299999D02*
X267241842Y-115264285D01*
X267241842Y-115264285D02*
X267313271Y-115228571D01*
X267313271Y-115228571D02*
X267384700Y-115157142D01*
X267384700Y-115157142D02*
X267420414Y-115049999D01*
X267420414Y-115049999D02*
X267420414Y-114978571D01*
X267420414Y-114978571D02*
X267384700Y-114871428D01*
X267384700Y-114871428D02*
X267348985Y-114835714D01*
X267348985Y-114835714D02*
X267098985Y-114835714D01*
X267098985Y-114835714D02*
X267098985Y-114978571D01*
X267420414Y-114514285D02*
X266670414Y-114514285D01*
X266670414Y-114514285D02*
X267420414Y-114085714D01*
X267420414Y-114085714D02*
X266670414Y-114085714D01*
X267420414Y-113728571D02*
X266670414Y-113728571D01*
X266670414Y-113728571D02*
X266670414Y-113550000D01*
X266670414Y-113550000D02*
X266706128Y-113442857D01*
X266706128Y-113442857D02*
X266777557Y-113371428D01*
X266777557Y-113371428D02*
X266848985Y-113335714D01*
X266848985Y-113335714D02*
X266991842Y-113300000D01*
X266991842Y-113300000D02*
X267098985Y-113300000D01*
X267098985Y-113300000D02*
X267241842Y-113335714D01*
X267241842Y-113335714D02*
X267313271Y-113371428D01*
X267313271Y-113371428D02*
X267384700Y-113442857D01*
X267384700Y-113442857D02*
X267420414Y-113550000D01*
X267420414Y-113550000D02*
X267420414Y-113728571D01*
X267384700Y-120272856D02*
X267420414Y-120165714D01*
X267420414Y-120165714D02*
X267420414Y-119987142D01*
X267420414Y-119987142D02*
X267384700Y-119915714D01*
X267384700Y-119915714D02*
X267348985Y-119879999D01*
X267348985Y-119879999D02*
X267277557Y-119844285D01*
X267277557Y-119844285D02*
X267206128Y-119844285D01*
X267206128Y-119844285D02*
X267134700Y-119879999D01*
X267134700Y-119879999D02*
X267098985Y-119915714D01*
X267098985Y-119915714D02*
X267063271Y-119987142D01*
X267063271Y-119987142D02*
X267027557Y-120129999D01*
X267027557Y-120129999D02*
X266991842Y-120201428D01*
X266991842Y-120201428D02*
X266956128Y-120237142D01*
X266956128Y-120237142D02*
X266884700Y-120272856D01*
X266884700Y-120272856D02*
X266813271Y-120272856D01*
X266813271Y-120272856D02*
X266741842Y-120237142D01*
X266741842Y-120237142D02*
X266706128Y-120201428D01*
X266706128Y-120201428D02*
X266670414Y-120129999D01*
X266670414Y-120129999D02*
X266670414Y-119951428D01*
X266670414Y-119951428D02*
X266706128Y-119844285D01*
X267348985Y-119094285D02*
X267384700Y-119129999D01*
X267384700Y-119129999D02*
X267420414Y-119237142D01*
X267420414Y-119237142D02*
X267420414Y-119308570D01*
X267420414Y-119308570D02*
X267384700Y-119415713D01*
X267384700Y-119415713D02*
X267313271Y-119487142D01*
X267313271Y-119487142D02*
X267241842Y-119522856D01*
X267241842Y-119522856D02*
X267098985Y-119558570D01*
X267098985Y-119558570D02*
X266991842Y-119558570D01*
X266991842Y-119558570D02*
X266848985Y-119522856D01*
X266848985Y-119522856D02*
X266777557Y-119487142D01*
X266777557Y-119487142D02*
X266706128Y-119415713D01*
X266706128Y-119415713D02*
X266670414Y-119308570D01*
X266670414Y-119308570D02*
X266670414Y-119237142D01*
X266670414Y-119237142D02*
X266706128Y-119129999D01*
X266706128Y-119129999D02*
X266741842Y-119094285D01*
X267420414Y-118415713D02*
X267420414Y-118772856D01*
X267420414Y-118772856D02*
X266670414Y-118772856D01*
X255904167Y-128938450D02*
X256047024Y-128986069D01*
X256047024Y-128986069D02*
X256285119Y-128986069D01*
X256285119Y-128986069D02*
X256380357Y-128938450D01*
X256380357Y-128938450D02*
X256427976Y-128890830D01*
X256427976Y-128890830D02*
X256475595Y-128795592D01*
X256475595Y-128795592D02*
X256475595Y-128700354D01*
X256475595Y-128700354D02*
X256427976Y-128605116D01*
X256427976Y-128605116D02*
X256380357Y-128557497D01*
X256380357Y-128557497D02*
X256285119Y-128509878D01*
X256285119Y-128509878D02*
X256094643Y-128462259D01*
X256094643Y-128462259D02*
X255999405Y-128414640D01*
X255999405Y-128414640D02*
X255951786Y-128367021D01*
X255951786Y-128367021D02*
X255904167Y-128271783D01*
X255904167Y-128271783D02*
X255904167Y-128176545D01*
X255904167Y-128176545D02*
X255951786Y-128081307D01*
X255951786Y-128081307D02*
X255999405Y-128033688D01*
X255999405Y-128033688D02*
X256094643Y-127986069D01*
X256094643Y-127986069D02*
X256332738Y-127986069D01*
X256332738Y-127986069D02*
X256475595Y-128033688D01*
X256808929Y-127986069D02*
X257047024Y-128986069D01*
X257047024Y-128986069D02*
X257237500Y-128271783D01*
X257237500Y-128271783D02*
X257427976Y-128986069D01*
X257427976Y-128986069D02*
X257666072Y-127986069D01*
X258094643Y-128986069D02*
X258285119Y-128986069D01*
X258285119Y-128986069D02*
X258380357Y-128938450D01*
X258380357Y-128938450D02*
X258427976Y-128890830D01*
X258427976Y-128890830D02*
X258523214Y-128747973D01*
X258523214Y-128747973D02*
X258570833Y-128557497D01*
X258570833Y-128557497D02*
X258570833Y-128176545D01*
X258570833Y-128176545D02*
X258523214Y-128081307D01*
X258523214Y-128081307D02*
X258475595Y-128033688D01*
X258475595Y-128033688D02*
X258380357Y-127986069D01*
X258380357Y-127986069D02*
X258189881Y-127986069D01*
X258189881Y-127986069D02*
X258094643Y-128033688D01*
X258094643Y-128033688D02*
X258047024Y-128081307D01*
X258047024Y-128081307D02*
X257999405Y-128176545D01*
X257999405Y-128176545D02*
X257999405Y-128414640D01*
X257999405Y-128414640D02*
X258047024Y-128509878D01*
X258047024Y-128509878D02*
X258094643Y-128557497D01*
X258094643Y-128557497D02*
X258189881Y-128605116D01*
X258189881Y-128605116D02*
X258380357Y-128605116D01*
X258380357Y-128605116D02*
X258475595Y-128557497D01*
X258475595Y-128557497D02*
X258523214Y-128509878D01*
X258523214Y-128509878D02*
X258570833Y-128414640D01*
D12*
%TO.C,OL1*%
X232581250Y-112110000D02*
X232581250Y-124110000D01*
X232581250Y-124110000D02*
X270581250Y-124110000D01*
X236081250Y-112110000D02*
X236081250Y-124110000D01*
X265581250Y-112110000D02*
X265581250Y-124110000D01*
X270581250Y-112110000D02*
X232581250Y-112110000D01*
X270581250Y-124110000D02*
X270581250Y-112110000D01*
D13*
%TO.C,SW9*%
X254137500Y-131631250D02*
X254737500Y-131631250D01*
X254437500Y-131931250D02*
X254137500Y-131631250D01*
X254737500Y-131631250D02*
X254437500Y-131931250D01*
X255837500Y-129831250D02*
X255837500Y-141631250D01*
X259937500Y-129831250D02*
X255837500Y-129831250D01*
X259937500Y-141631250D02*
X255837500Y-141631250D01*
X261437500Y-135731250D02*
X262437500Y-135731250D01*
X261937500Y-135231250D02*
X261937500Y-136231250D01*
X263937500Y-129831250D02*
X268037500Y-129831250D01*
X268037500Y-129831250D02*
X268037500Y-132231250D01*
X268037500Y-134431250D02*
X268037500Y-137031250D01*
X268037500Y-139231250D02*
X268037500Y-141631250D01*
X268037500Y-141631250D02*
X263937500Y-141631250D01*
X264937500Y-135731250D02*
G75*
G02*
X258937500Y-135731250I-3000000J0D01*
G01*
X258937500Y-135731250D02*
G75*
G02*
X264937500Y-135731250I3000000J0D01*
G01*
D14*
%TO.C,D5*%
X242099999Y-144797158D02*
X241199999Y-144797158D01*
X241199999Y-143897158D01*
X242099999Y-144797158D01*
G36*
X242099999Y-144797158D02*
G01*
X241199999Y-144797158D01*
X241199999Y-143897158D01*
X242099999Y-144797158D01*
G37*
%TO.C,D3*%
X242099999Y-136997158D02*
X241199999Y-136997158D01*
X241199999Y-136097158D01*
X242099999Y-136997158D01*
G36*
X242099999Y-136997158D02*
G01*
X241199999Y-136997158D01*
X241199999Y-136097158D01*
X242099999Y-136997158D01*
G37*
%TO.C,D1*%
X242099999Y-128997158D02*
X241199999Y-128997158D01*
X241199999Y-128097158D01*
X242099999Y-128997158D01*
G36*
X242099999Y-128997158D02*
G01*
X241199999Y-128997158D01*
X241199999Y-128097158D01*
X242099999Y-128997158D01*
G37*
%TO.C,D4*%
X233699999Y-140997158D02*
X232799999Y-140997158D01*
X232799999Y-140097158D01*
X233699999Y-140997158D01*
G36*
X233699999Y-140997158D02*
G01*
X232799999Y-140997158D01*
X232799999Y-140097158D01*
X233699999Y-140997158D01*
G37*
%TO.C,D2*%
X233699999Y-132997158D02*
X232799999Y-132997158D01*
X232799999Y-132097158D01*
X233699999Y-132997158D01*
G36*
X233699999Y-132997158D02*
G01*
X232799999Y-132997158D01*
X232799999Y-132097158D01*
X233699999Y-132997158D01*
G37*
%TD*%
M02*
